<?xml version="1.0" encoding="utf-8" standalone="no"?>
<!DOCTYPE svg PUBLIC "-//W3C//DTD SVG 1.1//EN"
  "http://www.w3.org/Graphics/SVG/1.1/DTD/svg11.dtd">
<svg xmlns:xlink="http://www.w3.org/1999/xlink" width="565.70207pt" height="365.140746pt" viewBox="0 0 565.70207 365.140746" xmlns="http://www.w3.org/2000/svg" version="1.1">
 <metadata>
  <rdf:RDF xmlns:dc="http://purl.org/dc/elements/1.1/" xmlns:cc="http://creativecommons.org/ns#" xmlns:rdf="http://www.w3.org/1999/02/22-rdf-syntax-ns#">
   <cc:Work>
    <dc:type rdf:resource="http://purl.org/dc/dcmitype/StillImage"/>
    <dc:date>2026-08-15T18:37:27.557612</dc:date>
    <dc:format>image/svg+xml</dc:format>
    <dc:creator>
     <cc:Agent>
      <dc:title>Matplotlib v3.11.1, https://matplotlib.org/</dc:title>
     </cc:Agent>
    </dc:creator>
   </cc:Work>
  </rdf:RDF>
 </metadata>
 <defs>
  <style type="text/css">*{stroke-linejoin: round; stroke-linecap: butt}</style>
 </defs>
 <g id="figure_1">
  <g id="patch_1">
   <path d="M 0 365.140746 
L 565.70207 365.140746 
L 565.70207 0 
L 0 0 
z
" style="fill: #ffffff"/>
  </g>
  <g id="axes_1">
   <g id="patch_2">
    <path d="M 45.14207 323.132152 
L 558.50207 323.132152 
L 558.50207 23.756152 
L 45.14207 23.756152 
z
" style="fill: #fbfcfe"/>
   </g>
   <g id="matplotlib.axis_1">
    <g id="xtick_1">
     <g id="line2d_1">
      <path d="M 68.476616 323.132152 
L 68.476616 23.756152 
" clip-path="url(#p653c8547a4)" style="fill: none; stroke: #d9e2ec; stroke-opacity: 0.75; stroke-width: 0.6; stroke-linecap: round"/>
     </g>
     <g id="text_1">
      <!-- 1.00 -->
      <g style="fill: #262626" transform="translate(59.476616 339.940258) scale(0.09 -0.09)">
       <defs>
        <path id="MicrosoftYaHei-17" d="M 1781 0 
L 1781 4141 
Q 1638 3997 1295 3819 
Q 953 3641 663 3569 
L 663 4169 
Q 1047 4275 1484 4508 
Q 1922 4741 2156 4947 
L 2388 4947 
L 2388 0 
L 1781 0 
z
" transform="scale(0.015625)"/>
        <path id="MicrosoftYaHei-14" d="M 372 322 
Q 372 491 487 606 
Q 603 722 775 722 
Q 950 722 1065 605 
Q 1181 488 1181 322 
Q 1181 159 1065 42 
Q 950 -75 772 -75 
Q 600 -75 486 42 
Q 372 159 372 322 
z
" transform="scale(0.015625)"/>
        <path id="MicrosoftYaHei-16" d="M 284 2325 
Q 284 3606 709 4264 
Q 1134 4922 1941 4922 
Q 3478 4922 3478 2441 
Q 3478 1216 3045 567 
Q 2613 -81 1831 -81 
Q 1094 -81 689 534 
Q 284 1150 284 2325 
z
M 909 2353 
Q 909 425 1888 425 
Q 2850 425 2850 2384 
Q 2850 4413 1906 4413 
Q 909 4413 909 2353 
z
" transform="scale(0.015625)"/>
       </defs>
       <use xlink:href="#MicrosoftYaHei-17"/>
       <use xlink:href="#MicrosoftYaHei-14" transform="translate(58.640625 0)"/>
       <use xlink:href="#MicrosoftYaHei-16" transform="translate(82.71875 0)"/>
       <use xlink:href="#MicrosoftYaHei-16" transform="translate(141.359375 0)"/>
      </g>
     </g>
    </g>
    <g id="xtick_2">
     <g id="line2d_2">
      <path d="M 126.812979 323.132152 
L 126.812979 23.756152 
" clip-path="url(#p653c8547a4)" style="fill: none; stroke: #d9e2ec; stroke-opacity: 0.75; stroke-width: 0.6; stroke-linecap: round"/>
     </g>
     <g id="text_2">
      <!-- 1.25 -->
      <g style="fill: #262626" transform="translate(117.812979 339.940258) scale(0.09 -0.09)">
       <defs>
        <path id="MicrosoftYaHei-18" d="M 2666 3572 
Q 2666 3963 2419 4186 
Q 2172 4409 1747 4409 
Q 1447 4409 1140 4256 
Q 834 4103 569 3819 
L 569 4413 
Q 806 4659 1107 4790 
Q 1409 4922 1816 4922 
Q 2472 4922 2872 4570 
Q 3272 4219 3272 3619 
Q 3272 3084 3026 2693 
Q 2781 2303 2188 1894 
Q 1581 1475 1376 1294 
Q 1172 1113 1090 947 
Q 1009 781 1009 544 
L 3416 544 
L 3416 0 
L 372 0 
L 372 241 
Q 372 659 486 951 
Q 600 1244 862 1520 
Q 1125 1797 1681 2184 
Q 2250 2584 2458 2886 
Q 2666 3188 2666 3572 
z
" transform="scale(0.015625)"/>
        <path id="MicrosoftYaHei-1b" d="M 3294 1494 
Q 3294 784 2823 350 
Q 2353 -84 1559 -84 
Q 878 -84 544 119 
L 544 744 
Q 1034 425 1544 425 
Q 2050 425 2361 704 
Q 2672 984 2672 1447 
Q 2672 1909 2348 2167 
Q 2025 2425 1434 2425 
Q 978 2425 613 2384 
L 791 4841 
L 3053 4841 
L 3053 4303 
L 1306 4303 
L 1206 2931 
L 1647 2950 
Q 2416 2950 2855 2567 
Q 3294 2184 3294 1494 
z
" transform="scale(0.015625)"/>
       </defs>
       <use xlink:href="#MicrosoftYaHei-17"/>
       <use xlink:href="#MicrosoftYaHei-14" transform="translate(58.640625 0)"/>
       <use xlink:href="#MicrosoftYaHei-18" transform="translate(82.71875 0)"/>
       <use xlink:href="#MicrosoftYaHei-1b" transform="translate(141.359375 0)"/>
      </g>
     </g>
    </g>
    <g id="xtick_3">
     <g id="line2d_3">
      <path d="M 185.149343 323.132152 
L 185.149343 23.756152 
" clip-path="url(#p653c8547a4)" style="fill: none; stroke: #d9e2ec; stroke-opacity: 0.75; stroke-width: 0.6; stroke-linecap: round"/>
     </g>
     <g id="text_3">
      <!-- 1.50 -->
      <g style="fill: #262626" transform="translate(176.149343 339.940258) scale(0.09 -0.09)">
       <use xlink:href="#MicrosoftYaHei-17"/>
       <use xlink:href="#MicrosoftYaHei-14" transform="translate(58.640625 0)"/>
       <use xlink:href="#MicrosoftYaHei-1b" transform="translate(82.71875 0)"/>
       <use xlink:href="#MicrosoftYaHei-16" transform="translate(141.359375 0)"/>
      </g>
     </g>
    </g>
    <g id="xtick_4">
     <g id="line2d_4">
      <path d="M 243.485707 323.132152 
L 243.485707 23.756152 
" clip-path="url(#p653c8547a4)" style="fill: none; stroke: #d9e2ec; stroke-opacity: 0.75; stroke-width: 0.6; stroke-linecap: round"/>
     </g>
     <g id="text_4">
      <!-- 1.75 -->
      <g style="fill: #262626" transform="translate(234.485707 339.940258) scale(0.09 -0.09)">
       <defs>
        <path id="MicrosoftYaHei-1d" d="M 3422 4463 
Q 2659 3131 2223 1998 
Q 1788 866 1684 0 
L 1047 0 
Q 1163 853 1594 1947 
Q 2025 3041 2747 4300 
L 347 4300 
L 347 4841 
L 3422 4841 
L 3422 4463 
z
" transform="scale(0.015625)"/>
       </defs>
       <use xlink:href="#MicrosoftYaHei-17"/>
       <use xlink:href="#MicrosoftYaHei-14" transform="translate(58.640625 0)"/>
       <use xlink:href="#MicrosoftYaHei-1d" transform="translate(82.71875 0)"/>
       <use xlink:href="#MicrosoftYaHei-1b" transform="translate(141.359375 0)"/>
      </g>
     </g>
    </g>
    <g id="xtick_5">
     <g id="line2d_5">
      <path d="M 301.82207 323.132152 
L 301.82207 23.756152 
" clip-path="url(#p653c8547a4)" style="fill: none; stroke: #d9e2ec; stroke-opacity: 0.75; stroke-width: 0.6; stroke-linecap: round"/>
     </g>
     <g id="text_5">
      <!-- 2.00 -->
      <g style="fill: #262626" transform="translate(292.82207 339.940258) scale(0.09 -0.09)">
       <use xlink:href="#MicrosoftYaHei-18"/>
       <use xlink:href="#MicrosoftYaHei-14" transform="translate(58.640625 0)"/>
       <use xlink:href="#MicrosoftYaHei-16" transform="translate(82.71875 0)"/>
       <use xlink:href="#MicrosoftYaHei-16" transform="translate(141.359375 0)"/>
      </g>
     </g>
    </g>
    <g id="xtick_6">
     <g id="line2d_6">
      <path d="M 360.158434 323.132152 
L 360.158434 23.756152 
" clip-path="url(#p653c8547a4)" style="fill: none; stroke: #d9e2ec; stroke-opacity: 0.75; stroke-width: 0.6; stroke-linecap: round"/>
     </g>
     <g id="text_6">
      <!-- 2.25 -->
      <g style="fill: #262626" transform="translate(351.158434 339.940258) scale(0.09 -0.09)">
       <use xlink:href="#MicrosoftYaHei-18"/>
       <use xlink:href="#MicrosoftYaHei-14" transform="translate(58.640625 0)"/>
       <use xlink:href="#MicrosoftYaHei-18" transform="translate(82.71875 0)"/>
       <use xlink:href="#MicrosoftYaHei-1b" transform="translate(141.359375 0)"/>
      </g>
     </g>
    </g>
    <g id="xtick_7">
     <g id="line2d_7">
      <path d="M 418.494798 323.132152 
L 418.494798 23.756152 
" clip-path="url(#p653c8547a4)" style="fill: none; stroke: #d9e2ec; stroke-opacity: 0.75; stroke-width: 0.6; stroke-linecap: round"/>
     </g>
     <g id="text_7">
      <!-- 2.50 -->
      <g style="fill: #262626" transform="translate(409.494798 339.940258) scale(0.09 -0.09)">
       <use xlink:href="#MicrosoftYaHei-18"/>
       <use xlink:href="#MicrosoftYaHei-14" transform="translate(58.640625 0)"/>
       <use xlink:href="#MicrosoftYaHei-1b" transform="translate(82.71875 0)"/>
       <use xlink:href="#MicrosoftYaHei-16" transform="translate(141.359375 0)"/>
      </g>
     </g>
    </g>
    <g id="xtick_8">
     <g id="line2d_8">
      <path d="M 476.831161 323.132152 
L 476.831161 23.756152 
" clip-path="url(#p653c8547a4)" style="fill: none; stroke: #d9e2ec; stroke-opacity: 0.75; stroke-width: 0.6; stroke-linecap: round"/>
     </g>
     <g id="text_8">
      <!-- 2.75 -->
      <g style="fill: #262626" transform="translate(467.831161 339.940258) scale(0.09 -0.09)">
       <use xlink:href="#MicrosoftYaHei-18"/>
       <use xlink:href="#MicrosoftYaHei-14" transform="translate(58.640625 0)"/>
       <use xlink:href="#MicrosoftYaHei-1d" transform="translate(82.71875 0)"/>
       <use xlink:href="#MicrosoftYaHei-1b" transform="translate(141.359375 0)"/>
      </g>
     </g>
    </g>
    <g id="xtick_9">
     <g id="line2d_9">
      <path d="M 535.167525 323.132152 
L 535.167525 23.756152 
" clip-path="url(#p653c8547a4)" style="fill: none; stroke: #d9e2ec; stroke-opacity: 0.75; stroke-width: 0.6; stroke-linecap: round"/>
     </g>
     <g id="text_9">
      <!-- 3.00 -->
      <g style="fill: #262626" transform="translate(526.167525 339.940258) scale(0.09 -0.09)">
       <defs>
        <path id="MicrosoftYaHei-19" d="M 447 809 
Q 944 425 1569 425 
Q 2069 425 2361 670 
Q 2653 916 2653 1328 
Q 2653 2247 1338 2247 
L 934 2247 
L 934 2753 
L 1319 2753 
Q 2484 2753 2484 3616 
Q 2484 4413 1594 4413 
Q 1084 4413 634 4069 
L 634 4647 
Q 1109 4922 1744 4922 
Q 2363 4922 2738 4598 
Q 3113 4275 3113 3759 
Q 3113 2809 2144 2538 
L 2144 2525 
Q 2669 2469 2973 2155 
Q 3278 1841 3278 1372 
Q 3278 719 2808 319 
Q 2338 -81 1556 -81 
Q 869 -81 447 175 
L 447 809 
z
" transform="scale(0.015625)"/>
       </defs>
       <use xlink:href="#MicrosoftYaHei-19"/>
       <use xlink:href="#MicrosoftYaHei-14" transform="translate(58.640625 0)"/>
       <use xlink:href="#MicrosoftYaHei-16" transform="translate(82.71875 0)"/>
       <use xlink:href="#MicrosoftYaHei-16" transform="translate(141.359375 0)"/>
      </g>
     </g>
    </g>
    <g id="text_10">
     <!-- p -->
     <g style="fill: #262626" transform="translate(298.308945 355.153148) scale(0.11 -0.11)">
      <defs>
       <path id="MicrosoftYaHei-56" d="M 1159 488 
L 1159 -1591 
L 547 -1591 
L 547 3456 
L 1159 3456 
L 1159 2859 
L 1172 2859 
Q 1578 3538 2359 3538 
Q 3022 3538 3398 3073 
Q 3775 2609 3775 1828 
Q 3775 966 3348 442 
Q 2922 -81 2200 -81 
Q 1534 -81 1172 488 
L 1159 488 
z
M 1156 1425 
Q 1156 1003 1428 714 
Q 1700 425 2109 425 
Q 2597 425 2872 800 
Q 3147 1175 3147 1838 
Q 3147 2397 2890 2714 
Q 2634 3031 2191 3031 
Q 1738 3031 1447 2709 
Q 1156 2388 1156 1884 
L 1156 1425 
z
" transform="scale(0.015625)"/>
      </defs>
      <use xlink:href="#MicrosoftYaHei-56"/>
     </g>
    </g>
   </g>
   <g id="matplotlib.axis_2">
    <g id="ytick_1">
     <g id="line2d_10">
      <path d="M 45.14207 288.519086 
L 558.50207 288.519086 
" clip-path="url(#p653c8547a4)" style="fill: none; stroke: #d9e2ec; stroke-opacity: 0.75; stroke-width: 0.6; stroke-linecap: round"/>
     </g>
     <g id="text_11">
      <!-- 1.5 -->
      <g style="fill: #262626" transform="translate(22.919727 292.173139) scale(0.09 -0.09)">
       <use xlink:href="#MicrosoftYaHei-17"/>
       <use xlink:href="#MicrosoftYaHei-14" transform="translate(58.640625 0)"/>
       <use xlink:href="#MicrosoftYaHei-1b" transform="translate(82.71875 0)"/>
      </g>
     </g>
    </g>
    <g id="ytick_2">
     <g id="line2d_11">
      <path d="M 45.14207 249.124456 
L 558.50207 249.124456 
" clip-path="url(#p653c8547a4)" style="fill: none; stroke: #d9e2ec; stroke-opacity: 0.75; stroke-width: 0.6; stroke-linecap: round"/>
     </g>
     <g id="text_12">
      <!-- 2.0 -->
      <g style="fill: #262626" transform="translate(22.919727 252.778509) scale(0.09 -0.09)">
       <use xlink:href="#MicrosoftYaHei-18"/>
       <use xlink:href="#MicrosoftYaHei-14" transform="translate(58.640625 0)"/>
       <use xlink:href="#MicrosoftYaHei-16" transform="translate(82.71875 0)"/>
      </g>
     </g>
    </g>
    <g id="ytick_3">
     <g id="line2d_12">
      <path d="M 45.14207 209.729826 
L 558.50207 209.729826 
" clip-path="url(#p653c8547a4)" style="fill: none; stroke: #d9e2ec; stroke-opacity: 0.75; stroke-width: 0.6; stroke-linecap: round"/>
     </g>
     <g id="text_13">
      <!-- 2.5 -->
      <g style="fill: #262626" transform="translate(22.919727 213.383879) scale(0.09 -0.09)">
       <use xlink:href="#MicrosoftYaHei-18"/>
       <use xlink:href="#MicrosoftYaHei-14" transform="translate(58.640625 0)"/>
       <use xlink:href="#MicrosoftYaHei-1b" transform="translate(82.71875 0)"/>
      </g>
     </g>
    </g>
    <g id="ytick_4">
     <g id="line2d_13">
      <path d="M 45.14207 170.335196 
L 558.50207 170.335196 
" clip-path="url(#p653c8547a4)" style="fill: none; stroke: #d9e2ec; stroke-opacity: 0.75; stroke-width: 0.6; stroke-linecap: round"/>
     </g>
     <g id="text_14">
      <!-- 3.0 -->
      <g style="fill: #262626" transform="translate(22.919727 173.989249) scale(0.09 -0.09)">
       <use xlink:href="#MicrosoftYaHei-19"/>
       <use xlink:href="#MicrosoftYaHei-14" transform="translate(58.640625 0)"/>
       <use xlink:href="#MicrosoftYaHei-16" transform="translate(82.71875 0)"/>
      </g>
     </g>
    </g>
    <g id="ytick_5">
     <g id="line2d_14">
      <path d="M 45.14207 130.940566 
L 558.50207 130.940566 
" clip-path="url(#p653c8547a4)" style="fill: none; stroke: #d9e2ec; stroke-opacity: 0.75; stroke-width: 0.6; stroke-linecap: round"/>
     </g>
     <g id="text_15">
      <!-- 3.5 -->
      <g style="fill: #262626" transform="translate(22.919727 134.594619) scale(0.09 -0.09)">
       <use xlink:href="#MicrosoftYaHei-19"/>
       <use xlink:href="#MicrosoftYaHei-14" transform="translate(58.640625 0)"/>
       <use xlink:href="#MicrosoftYaHei-1b" transform="translate(82.71875 0)"/>
      </g>
     </g>
    </g>
    <g id="ytick_6">
     <g id="line2d_15">
      <path d="M 45.14207 91.545936 
L 558.50207 91.545936 
" clip-path="url(#p653c8547a4)" style="fill: none; stroke: #d9e2ec; stroke-opacity: 0.75; stroke-width: 0.6; stroke-linecap: round"/>
     </g>
     <g id="text_16">
      <!-- 4.0 -->
      <g style="fill: #262626" transform="translate(22.919727 95.199989) scale(0.09 -0.09)">
       <defs>
        <path id="MicrosoftYaHei-1a" d="M 2906 4841 
L 2906 1644 
L 3631 1644 
L 3631 1138 
L 2906 1138 
L 2906 0 
L 2313 0 
L 2313 1138 
L 53 1138 
L 53 1616 
Q 656 2294 1265 3178 
Q 1875 4063 2272 4841 
L 2906 4841 
z
M 741 1644 
L 2313 1644 
L 2313 3950 
Q 1988 3366 1616 2817 
Q 1244 2269 741 1644 
z
" transform="scale(0.015625)"/>
       </defs>
       <use xlink:href="#MicrosoftYaHei-1a"/>
       <use xlink:href="#MicrosoftYaHei-14" transform="translate(58.640625 0)"/>
       <use xlink:href="#MicrosoftYaHei-16" transform="translate(82.71875 0)"/>
      </g>
     </g>
    </g>
    <g id="ytick_7">
     <g id="line2d_16">
      <path d="M 45.14207 52.151306 
L 558.50207 52.151306 
" clip-path="url(#p653c8547a4)" style="fill: none; stroke: #d9e2ec; stroke-opacity: 0.75; stroke-width: 0.6; stroke-linecap: round"/>
     </g>
     <g id="text_17">
      <!-- 4.5 -->
      <g style="fill: #262626" transform="translate(22.919727 55.805359) scale(0.09 -0.09)">
       <use xlink:href="#MicrosoftYaHei-1a"/>
       <use xlink:href="#MicrosoftYaHei-14" transform="translate(58.640625 0)"/>
       <use xlink:href="#MicrosoftYaHei-1b" transform="translate(82.71875 0)"/>
      </g>
     </g>
    </g>
    <g id="text_18">
     <!-- Normalized LOOCV RMSE -->
     <g style="fill: #262626" transform="translate(16.132129 241.366574) rotate(-90) scale(0.11 -0.11)">
      <defs>
       <path id="MicrosoftYaHei-34" d="M 4578 0 
L 3838 0 
L 1403 3766 
Q 1300 3925 1238 4081 
L 1219 4081 
Q 1244 3919 1244 3403 
L 1244 0 
L 625 0 
L 625 4841 
L 1409 4841 
L 3778 1141 
Q 3947 878 3978 806 
L 3991 806 
Q 3959 1013 3959 1513 
L 3959 4841 
L 4578 4841 
L 4578 0 
z
" transform="scale(0.015625)"/>
       <path id="MicrosoftYaHei-55" d="M 316 1691 
Q 316 2547 794 3042 
Q 1272 3538 2091 3538 
Q 2869 3538 3311 3061 
Q 3753 2584 3753 1744 
Q 3753 925 3281 422 
Q 2809 -81 2016 -81 
Q 1241 -81 778 406 
Q 316 894 316 1691 
z
M 941 1709 
Q 941 1113 1242 769 
Q 1544 425 2053 425 
Q 2578 425 2853 761 
Q 3128 1097 3128 1725 
Q 3128 2356 2853 2693 
Q 2578 3031 2053 3031 
Q 1538 3031 1239 2678 
Q 941 2325 941 1709 
z
" transform="scale(0.015625)"/>
       <path id="MicrosoftYaHei-58" d="M 2400 2850 
Q 2247 2959 1978 2959 
Q 1622 2959 1390 2626 
Q 1159 2294 1159 1750 
L 1159 0 
L 547 0 
L 547 3456 
L 1159 3456 
L 1159 2753 
L 1172 2753 
Q 1434 3516 2078 3516 
Q 2288 3516 2400 3469 
L 2400 2850 
z
" transform="scale(0.015625)"/>
       <path id="MicrosoftYaHei-53" d="M 5522 0 
L 4909 0 
L 4909 1984 
Q 4909 2547 4734 2789 
Q 4559 3031 4159 3031 
Q 3822 3031 3581 2715 
Q 3341 2400 3341 1969 
L 3341 0 
L 2728 0 
L 2728 2047 
Q 2728 3031 1969 3031 
Q 1619 3031 1389 2731 
Q 1159 2431 1159 1966 
L 1159 0 
L 547 0 
L 547 3456 
L 1159 3456 
L 1159 2909 
L 1172 2909 
Q 1541 3538 2250 3538 
Q 2597 3538 2862 3347 
Q 3128 3156 3231 2831 
Q 3616 3538 4381 3538 
Q 5522 3538 5522 2131 
L 5522 0 
z
" transform="scale(0.015625)"/>
       <path id="MicrosoftYaHei-47" d="M 628 3216 
Q 1144 3538 1819 3538 
Q 3069 3538 3069 2225 
L 3069 0 
L 2463 0 
L 2463 534 
L 2447 534 
Q 2088 -81 1388 -81 
Q 884 -81 587 191 
Q 291 463 291 925 
Q 291 1894 1438 2053 
L 2463 2197 
Q 2463 3044 1763 3044 
Q 1141 3044 628 2625 
L 628 3216 
z
M 1653 1625 
Q 1228 1569 1067 1412 
Q 906 1256 906 975 
Q 906 728 1081 572 
Q 1256 416 1544 416 
Q 1944 416 2203 697 
Q 2463 978 2463 1403 
L 2463 1734 
L 1653 1625 
z
" transform="scale(0.015625)"/>
       <path id="MicrosoftYaHei-52" d="M 544 0 
L 544 5116 
L 1156 5116 
L 1156 0 
L 544 0 
z
" transform="scale(0.015625)"/>
       <path id="MicrosoftYaHei-4f" d="M 472 4675 
Q 472 4838 583 4948 
Q 694 5059 856 5059 
Q 1022 5059 1136 4950 
Q 1250 4841 1250 4675 
Q 1250 4513 1136 4405 
Q 1022 4297 856 4297 
Q 691 4297 581 4405 
Q 472 4513 472 4675 
z
M 544 0 
L 544 3456 
L 1156 3456 
L 1156 0 
L 544 0 
z
" transform="scale(0.015625)"/>
       <path id="MicrosoftYaHei-60" d="M 2978 0 
L 109 0 
L 109 203 
L 2119 2950 
L 297 2950 
L 297 3456 
L 2991 3456 
L 2991 3256 
L 994 506 
L 2978 506 
L 2978 0 
z
" transform="scale(0.015625)"/>
       <path id="MicrosoftYaHei-4b" d="M 3363 1572 
L 944 1572 
Q 959 1019 1246 717 
Q 1534 416 2050 416 
Q 2631 416 3116 788 
L 3116 241 
Q 2659 -81 1906 -81 
Q 1156 -81 736 394 
Q 316 869 316 1713 
Q 316 2506 777 3022 
Q 1238 3538 1922 3538 
Q 2600 3538 2981 3102 
Q 3363 2666 3363 1881 
L 3363 1572 
z
M 2750 2063 
Q 2747 2531 2528 2787 
Q 2309 3044 1913 3044 
Q 1547 3044 1280 2772 
Q 1013 2500 944 2063 
L 2750 2063 
z
" transform="scale(0.015625)"/>
       <path id="MicrosoftYaHei-4a" d="M 3547 0 
L 2934 0 
L 2934 575 
L 2922 575 
Q 2544 -81 1747 -81 
Q 1091 -81 703 386 
Q 316 853 316 1647 
Q 316 2503 753 3020 
Q 1191 3538 1897 3538 
Q 2603 3538 2922 2988 
L 2934 2988 
L 2934 5116 
L 3547 5116 
L 3547 0 
z
M 2938 2056 
Q 2938 2472 2664 2751 
Q 2391 3031 1991 3031 
Q 1503 3031 1222 2667 
Q 941 2303 941 1675 
Q 941 1097 1211 761 
Q 1481 425 1931 425 
Q 2375 425 2656 754 
Q 2938 1084 2938 1575 
L 2938 2056 
z
" transform="scale(0.015625)"/>
       <path id="MicrosoftYaHei-3" transform="scale(0.015625)"/>
       <path id="MicrosoftYaHei-32" d="M 3178 0 
L 625 0 
L 625 4841 
L 1250 4841 
L 1250 553 
L 3178 553 
L 3178 0 
z
" transform="scale(0.015625)"/>
       <path id="MicrosoftYaHei-35" d="M 313 2363 
Q 313 3534 947 4228 
Q 1581 4922 2666 4922 
Q 3675 4922 4290 4244 
Q 4906 3566 4906 2478 
Q 4906 1300 4275 609 
Q 3644 -81 2588 -81 
Q 1556 -81 934 597 
Q 313 1275 313 2363 
z
M 969 2413 
Q 969 1534 1417 1004 
Q 1866 475 2588 475 
Q 3363 475 3805 983 
Q 4247 1491 4247 2403 
Q 4247 3341 3814 3850 
Q 3381 4359 2628 4359 
Q 1888 4359 1428 3821 
Q 969 3284 969 2413 
z
" transform="scale(0.015625)"/>
       <path id="MicrosoftYaHei-29" d="M 3938 200 
Q 3403 -81 2597 -81 
Q 1556 -81 934 580 
Q 313 1241 313 2328 
Q 313 3497 1013 4209 
Q 1713 4922 2791 4922 
Q 3484 4922 3938 4725 
L 3938 4072 
Q 3419 4359 2797 4359 
Q 1988 4359 1478 3820 
Q 969 3281 969 2366 
Q 969 1497 1444 986 
Q 1919 475 2688 475 
Q 3406 475 3938 800 
L 3938 200 
z
" transform="scale(0.015625)"/>
       <path id="MicrosoftYaHei-3c" d="M 4272 4841 
L 2494 0 
L 1800 0 
L 56 4841 
L 750 4841 
L 2053 1056 
Q 2119 869 2150 622 
L 2166 622 
Q 2191 838 2275 1063 
L 3603 4841 
L 4272 4841 
z
" transform="scale(0.015625)"/>
       <path id="MicrosoftYaHei-38" d="M 4159 0 
L 3422 0 
L 2619 1344 
Q 2378 1747 2178 1892 
Q 1978 2038 1700 2038 
L 1250 2038 
L 1250 0 
L 625 0 
L 625 4841 
L 2100 4841 
Q 2806 4841 3206 4500 
Q 3606 4159 3606 3547 
Q 3606 2541 2531 2241 
L 2531 2225 
Q 2731 2141 2876 1984 
Q 3022 1828 3253 1450 
L 4159 0 
z
M 1250 4294 
L 1250 2584 
L 1988 2584 
Q 2416 2584 2683 2834 
Q 2950 3084 2950 3491 
Q 2950 3869 2706 4081 
Q 2463 4294 1997 4294 
L 1250 4294 
z
" transform="scale(0.015625)"/>
       <path id="MicrosoftYaHei-33" d="M 5003 0 
L 5003 3206 
Q 5003 3603 5050 4159 
L 5034 4159 
Q 4953 3809 4891 3672 
L 3294 0 
L 2947 0 
L 1353 3644 
Q 1297 3769 1209 4159 
L 1191 4159 
Q 1222 3822 1222 3178 
L 1222 0 
L 625 0 
L 625 4841 
L 1472 4841 
L 2900 1522 
Q 3063 1141 3116 928 
L 3138 928 
Q 3300 1375 3366 1534 
L 4819 4841 
L 5625 4841 
L 5625 0 
L 5003 0 
z
" transform="scale(0.015625)"/>
       <path id="MicrosoftYaHei-39" d="M 400 909 
Q 622 716 994 591 
Q 1366 466 1700 466 
Q 2719 466 2719 1191 
Q 2719 1394 2609 1556 
Q 2500 1719 2309 1844 
Q 2119 1969 1594 2228 
Q 866 2591 634 2902 
Q 403 3213 403 3613 
Q 403 4216 887 4569 
Q 1372 4922 2109 4922 
Q 2831 4922 3169 4747 
L 3169 4066 
Q 2731 4369 2063 4369 
Q 1619 4369 1339 4183 
Q 1059 3997 1059 3666 
Q 1059 3372 1253 3187 
Q 1447 3003 2094 2684 
Q 2806 2344 3090 2003 
Q 3375 1663 3375 1238 
Q 3375 600 2912 259 
Q 2450 -81 1628 -81 
Q 1341 -81 958 -1 
Q 575 78 400 197 
L 400 909 
z
" transform="scale(0.015625)"/>
       <path id="MicrosoftYaHei-2b" d="M 3228 0 
L 625 0 
L 625 4841 
L 3119 4841 
L 3119 4284 
L 1250 4284 
L 1250 2734 
L 2981 2734 
L 2981 2181 
L 1250 2181 
L 1250 553 
L 3228 553 
L 3228 0 
z
" transform="scale(0.015625)"/>
      </defs>
      <use xlink:href="#MicrosoftYaHei-34"/>
      <use xlink:href="#MicrosoftYaHei-55" transform="translate(81.296875 0)"/>
      <use xlink:href="#MicrosoftYaHei-58" transform="translate(144.875 0)"/>
      <use xlink:href="#MicrosoftYaHei-53" transform="translate(182.875 0)"/>
      <use xlink:href="#MicrosoftYaHei-47" transform="translate(276.578125 0)"/>
      <use xlink:href="#MicrosoftYaHei-52" transform="translate(331.859375 0)"/>
      <use xlink:href="#MicrosoftYaHei-4f" transform="translate(358.46875 0)"/>
      <use xlink:href="#MicrosoftYaHei-60" transform="translate(385.078125 0)"/>
      <use xlink:href="#MicrosoftYaHei-4b" transform="translate(434.25 0)"/>
      <use xlink:href="#MicrosoftYaHei-4a" transform="translate(490.984375 0)"/>
      <use xlink:href="#MicrosoftYaHei-3" transform="translate(554.953125 0)"/>
      <use xlink:href="#MicrosoftYaHei-32" transform="translate(584.546875 0)"/>
      <use xlink:href="#MicrosoftYaHei-35" transform="translate(632.15625 0)"/>
      <use xlink:href="#MicrosoftYaHei-35" transform="translate(713.65625 0)"/>
      <use xlink:href="#MicrosoftYaHei-29" transform="translate(795.15625 0)"/>
      <use xlink:href="#MicrosoftYaHei-3c" transform="translate(862.046875 0)"/>
      <use xlink:href="#MicrosoftYaHei-3" transform="translate(929.671875 0)"/>
      <use xlink:href="#MicrosoftYaHei-38" transform="translate(959.265625 0)"/>
      <use xlink:href="#MicrosoftYaHei-33" transform="translate(1024.546875 0)"/>
      <use xlink:href="#MicrosoftYaHei-39" transform="translate(1122.25 0)"/>
      <use xlink:href="#MicrosoftYaHei-2b" transform="translate(1179.96875 0)"/>
     </g>
    </g>
   </g>
   <g id="line2d_17">
    <path d="M 68.476616 37.364152 
L 80.143888 48.303077 
L 91.811161 58.675764 
L 103.478434 68.522477 
L 115.145707 77.879755 
L 126.812979 86.780826 
L 138.480252 95.25598 
L 150.147525 103.332884 
L 161.814798 111.036862 
L 173.48207 118.391136 
L 185.149343 125.417042 
L 196.816616 132.134217 
L 208.483888 138.560766 
L 220.151161 144.71341 
L 231.818434 150.607614 
L 243.485707 156.257703 
L 255.152979 161.67697 
L 266.820252 166.877761 
L 278.487525 171.871565 
L 290.154798 176.669082 
L 301.82207 181.280295 
L 313.489343 185.714525 
L 325.156616 189.980488 
L 336.823888 194.086343 
L 348.491161 198.039737 
L 360.158434 201.847843 
L 371.825707 205.517398 
L 383.492979 209.054736 
L 395.160252 212.465817 
L 406.827525 215.756256 
L 418.494798 218.931345 
L 430.16207 221.996081 
L 441.829343 224.955182 
L 453.496616 227.813107 
L 465.163888 230.574078 
L 476.831161 233.242089 
L 488.498434 235.820927 
L 500.165707 238.314183 
L 511.832979 240.725264 
L 523.500252 243.057408 
L 535.167525 245.313689 
" clip-path="url(#p653c8547a4)" style="fill: none; stroke: #4c72b0; stroke-width: 1.5; stroke-linecap: round"/>
    <defs>
     <path id="m03fa4021a3" d="M 0 1.5 
C 0.397805 1.5 0.77937 1.341951 1.06066 1.06066 
C 1.341951 0.77937 1.5 0.397805 1.5 0 
C 1.5 -0.397805 1.341951 -0.77937 1.06066 -1.06066 
C 0.77937 -1.341951 0.397805 -1.5 0 -1.5 
C -0.397805 -1.5 -0.77937 -1.341951 -1.06066 -1.06066 
C -1.341951 -0.77937 -1.5 -0.397805 -1.5 0 
C -1.5 0.397805 -1.341951 0.77937 -1.06066 1.06066 
C -0.77937 1.341951 -0.397805 1.5 0 1.5 
z
" style="stroke: #4c72b0"/>
    </defs>
    <g clip-path="url(#p653c8547a4)">
     <use xlink:href="#m03fa4021a3" x="68.476616" y="37.364152" style="fill: #4c72b0; stroke: #4c72b0"/>
     <use xlink:href="#m03fa4021a3" x="80.143888" y="48.303077" style="fill: #4c72b0; stroke: #4c72b0"/>
     <use xlink:href="#m03fa4021a3" x="91.811161" y="58.675764" style="fill: #4c72b0; stroke: #4c72b0"/>
     <use xlink:href="#m03fa4021a3" x="103.478434" y="68.522477" style="fill: #4c72b0; stroke: #4c72b0"/>
     <use xlink:href="#m03fa4021a3" x="115.145707" y="77.879755" style="fill: #4c72b0; stroke: #4c72b0"/>
     <use xlink:href="#m03fa4021a3" x="126.812979" y="86.780826" style="fill: #4c72b0; stroke: #4c72b0"/>
     <use xlink:href="#m03fa4021a3" x="138.480252" y="95.25598" style="fill: #4c72b0; stroke: #4c72b0"/>
     <use xlink:href="#m03fa4021a3" x="150.147525" y="103.332884" style="fill: #4c72b0; stroke: #4c72b0"/>
     <use xlink:href="#m03fa4021a3" x="161.814798" y="111.036862" style="fill: #4c72b0; stroke: #4c72b0"/>
     <use xlink:href="#m03fa4021a3" x="173.48207" y="118.391136" style="fill: #4c72b0; stroke: #4c72b0"/>
     <use xlink:href="#m03fa4021a3" x="185.149343" y="125.417042" style="fill: #4c72b0; stroke: #4c72b0"/>
     <use xlink:href="#m03fa4021a3" x="196.816616" y="132.134217" style="fill: #4c72b0; stroke: #4c72b0"/>
     <use xlink:href="#m03fa4021a3" x="208.483888" y="138.560766" style="fill: #4c72b0; stroke: #4c72b0"/>
     <use xlink:href="#m03fa4021a3" x="220.151161" y="144.71341" style="fill: #4c72b0; stroke: #4c72b0"/>
     <use xlink:href="#m03fa4021a3" x="231.818434" y="150.607614" style="fill: #4c72b0; stroke: #4c72b0"/>
     <use xlink:href="#m03fa4021a3" x="243.485707" y="156.257703" style="fill: #4c72b0; stroke: #4c72b0"/>
     <use xlink:href="#m03fa4021a3" x="255.152979" y="161.67697" style="fill: #4c72b0; stroke: #4c72b0"/>
     <use xlink:href="#m03fa4021a3" x="266.820252" y="166.877761" style="fill: #4c72b0; stroke: #4c72b0"/>
     <use xlink:href="#m03fa4021a3" x="278.487525" y="171.871565" style="fill: #4c72b0; stroke: #4c72b0"/>
     <use xlink:href="#m03fa4021a3" x="290.154798" y="176.669082" style="fill: #4c72b0; stroke: #4c72b0"/>
     <use xlink:href="#m03fa4021a3" x="301.82207" y="181.280295" style="fill: #4c72b0; stroke: #4c72b0"/>
     <use xlink:href="#m03fa4021a3" x="313.489343" y="185.714525" style="fill: #4c72b0; stroke: #4c72b0"/>
     <use xlink:href="#m03fa4021a3" x="325.156616" y="189.980488" style="fill: #4c72b0; stroke: #4c72b0"/>
     <use xlink:href="#m03fa4021a3" x="336.823888" y="194.086343" style="fill: #4c72b0; stroke: #4c72b0"/>
     <use xlink:href="#m03fa4021a3" x="348.491161" y="198.039737" style="fill: #4c72b0; stroke: #4c72b0"/>
     <use xlink:href="#m03fa4021a3" x="360.158434" y="201.847843" style="fill: #4c72b0; stroke: #4c72b0"/>
     <use xlink:href="#m03fa4021a3" x="371.825707" y="205.517398" style="fill: #4c72b0; stroke: #4c72b0"/>
     <use xlink:href="#m03fa4021a3" x="383.492979" y="209.054736" style="fill: #4c72b0; stroke: #4c72b0"/>
     <use xlink:href="#m03fa4021a3" x="395.160252" y="212.465817" style="fill: #4c72b0; stroke: #4c72b0"/>
     <use xlink:href="#m03fa4021a3" x="406.827525" y="215.756256" style="fill: #4c72b0; stroke: #4c72b0"/>
     <use xlink:href="#m03fa4021a3" x="418.494798" y="218.931345" style="fill: #4c72b0; stroke: #4c72b0"/>
     <use xlink:href="#m03fa4021a3" x="430.16207" y="221.996081" style="fill: #4c72b0; stroke: #4c72b0"/>
     <use xlink:href="#m03fa4021a3" x="441.829343" y="224.955182" style="fill: #4c72b0; stroke: #4c72b0"/>
     <use xlink:href="#m03fa4021a3" x="453.496616" y="227.813107" style="fill: #4c72b0; stroke: #4c72b0"/>
     <use xlink:href="#m03fa4021a3" x="465.163888" y="230.574078" style="fill: #4c72b0; stroke: #4c72b0"/>
     <use xlink:href="#m03fa4021a3" x="476.831161" y="233.242089" style="fill: #4c72b0; stroke: #4c72b0"/>
     <use xlink:href="#m03fa4021a3" x="488.498434" y="235.820927" style="fill: #4c72b0; stroke: #4c72b0"/>
     <use xlink:href="#m03fa4021a3" x="500.165707" y="238.314183" style="fill: #4c72b0; stroke: #4c72b0"/>
     <use xlink:href="#m03fa4021a3" x="511.832979" y="240.725264" style="fill: #4c72b0; stroke: #4c72b0"/>
     <use xlink:href="#m03fa4021a3" x="523.500252" y="243.057408" style="fill: #4c72b0; stroke: #4c72b0"/>
     <use xlink:href="#m03fa4021a3" x="535.167525" y="245.313689" style="fill: #4c72b0; stroke: #4c72b0"/>
    </g>
   </g>
   <g id="line2d_18">
    <path d="M 68.476616 47.69108 
L 80.143888 58.189681 
L 91.811161 68.14297 
L 103.478434 77.589684 
L 115.145707 86.564972 
L 126.812979 95.100805 
L 138.480252 103.226329 
L 150.147525 110.968164 
L 161.814798 118.350681 
L 173.48207 125.396227 
L 185.149343 132.125338 
L 196.816616 138.556913 
L 208.483888 144.708381 
L 220.151161 150.595837 
L 231.818434 156.234168 
L 243.485707 161.637168 
L 255.152979 166.817633 
L 266.820252 171.787454 
L 278.487525 176.557692 
L 290.154798 181.138654 
L 301.82207 185.539952 
L 313.489343 189.770567 
L 325.156616 193.838893 
L 336.823888 197.752791 
L 348.491161 201.519628 
L 360.158434 205.146316 
L 371.825707 208.639347 
L 383.492979 212.004825 
L 395.160252 215.248495 
L 406.827525 218.375768 
L 418.494798 221.391749 
L 430.16207 224.301252 
L 441.829343 227.108828 
L 453.496616 229.818778 
L 465.163888 232.435172 
L 476.831161 234.961864 
L 488.498434 237.402507 
L 500.165707 239.760565 
L 511.832979 242.039327 
L 523.500252 244.241916 
L 535.167525 246.3713 
" clip-path="url(#p653c8547a4)" style="fill: none; stroke: #dd8452; stroke-width: 1.5; stroke-linecap: round"/>
    <defs>
     <path id="m0bca2b76a9" d="M 0 1.5 
C 0.397805 1.5 0.77937 1.341951 1.06066 1.06066 
C 1.341951 0.77937 1.5 0.397805 1.5 0 
C 1.5 -0.397805 1.341951 -0.77937 1.06066 -1.06066 
C 0.77937 -1.341951 0.397805 -1.5 0 -1.5 
C -0.397805 -1.5 -0.77937 -1.341951 -1.06066 -1.06066 
C -1.341951 -0.77937 -1.5 -0.397805 -1.5 0 
C -1.5 0.397805 -1.341951 0.77937 -1.06066 1.06066 
C -0.77937 1.341951 -0.397805 1.5 0 1.5 
z
" style="stroke: #dd8452"/>
    </defs>
    <g clip-path="url(#p653c8547a4)">
     <use xlink:href="#m0bca2b76a9" x="68.476616" y="47.69108" style="fill: #dd8452; stroke: #dd8452"/>
     <use xlink:href="#m0bca2b76a9" x="80.143888" y="58.189681" style="fill: #dd8452; stroke: #dd8452"/>
     <use xlink:href="#m0bca2b76a9" x="91.811161" y="68.14297" style="fill: #dd8452; stroke: #dd8452"/>
     <use xlink:href="#m0bca2b76a9" x="103.478434" y="77.589684" style="fill: #dd8452; stroke: #dd8452"/>
     <use xlink:href="#m0bca2b76a9" x="115.145707" y="86.564972" style="fill: #dd8452; stroke: #dd8452"/>
     <use xlink:href="#m0bca2b76a9" x="126.812979" y="95.100805" style="fill: #dd8452; stroke: #dd8452"/>
     <use xlink:href="#m0bca2b76a9" x="138.480252" y="103.226329" style="fill: #dd8452; stroke: #dd8452"/>
     <use xlink:href="#m0bca2b76a9" x="150.147525" y="110.968164" style="fill: #dd8452; stroke: #dd8452"/>
     <use xlink:href="#m0bca2b76a9" x="161.814798" y="118.350681" style="fill: #dd8452; stroke: #dd8452"/>
     <use xlink:href="#m0bca2b76a9" x="173.48207" y="125.396227" style="fill: #dd8452; stroke: #dd8452"/>
     <use xlink:href="#m0bca2b76a9" x="185.149343" y="132.125338" style="fill: #dd8452; stroke: #dd8452"/>
     <use xlink:href="#m0bca2b76a9" x="196.816616" y="138.556913" style="fill: #dd8452; stroke: #dd8452"/>
     <use xlink:href="#m0bca2b76a9" x="208.483888" y="144.708381" style="fill: #dd8452; stroke: #dd8452"/>
     <use xlink:href="#m0bca2b76a9" x="220.151161" y="150.595837" style="fill: #dd8452; stroke: #dd8452"/>
     <use xlink:href="#m0bca2b76a9" x="231.818434" y="156.234168" style="fill: #dd8452; stroke: #dd8452"/>
     <use xlink:href="#m0bca2b76a9" x="243.485707" y="161.637168" style="fill: #dd8452; stroke: #dd8452"/>
     <use xlink:href="#m0bca2b76a9" x="255.152979" y="166.817633" style="fill: #dd8452; stroke: #dd8452"/>
     <use xlink:href="#m0bca2b76a9" x="266.820252" y="171.787454" style="fill: #dd8452; stroke: #dd8452"/>
     <use xlink:href="#m0bca2b76a9" x="278.487525" y="176.557692" style="fill: #dd8452; stroke: #dd8452"/>
     <use xlink:href="#m0bca2b76a9" x="290.154798" y="181.138654" style="fill: #dd8452; stroke: #dd8452"/>
     <use xlink:href="#m0bca2b76a9" x="301.82207" y="185.539952" style="fill: #dd8452; stroke: #dd8452"/>
     <use xlink:href="#m0bca2b76a9" x="313.489343" y="189.770567" style="fill: #dd8452; stroke: #dd8452"/>
     <use xlink:href="#m0bca2b76a9" x="325.156616" y="193.838893" style="fill: #dd8452; stroke: #dd8452"/>
     <use xlink:href="#m0bca2b76a9" x="336.823888" y="197.752791" style="fill: #dd8452; stroke: #dd8452"/>
     <use xlink:href="#m0bca2b76a9" x="348.491161" y="201.519628" style="fill: #dd8452; stroke: #dd8452"/>
     <use xlink:href="#m0bca2b76a9" x="360.158434" y="205.146316" style="fill: #dd8452; stroke: #dd8452"/>
     <use xlink:href="#m0bca2b76a9" x="371.825707" y="208.639347" style="fill: #dd8452; stroke: #dd8452"/>
     <use xlink:href="#m0bca2b76a9" x="383.492979" y="212.004825" style="fill: #dd8452; stroke: #dd8452"/>
     <use xlink:href="#m0bca2b76a9" x="395.160252" y="215.248495" style="fill: #dd8452; stroke: #dd8452"/>
     <use xlink:href="#m0bca2b76a9" x="406.827525" y="218.375768" style="fill: #dd8452; stroke: #dd8452"/>
     <use xlink:href="#m0bca2b76a9" x="418.494798" y="221.391749" style="fill: #dd8452; stroke: #dd8452"/>
     <use xlink:href="#m0bca2b76a9" x="430.16207" y="224.301252" style="fill: #dd8452; stroke: #dd8452"/>
     <use xlink:href="#m0bca2b76a9" x="441.829343" y="227.108828" style="fill: #dd8452; stroke: #dd8452"/>
     <use xlink:href="#m0bca2b76a9" x="453.496616" y="229.818778" style="fill: #dd8452; stroke: #dd8452"/>
     <use xlink:href="#m0bca2b76a9" x="465.163888" y="232.435172" style="fill: #dd8452; stroke: #dd8452"/>
     <use xlink:href="#m0bca2b76a9" x="476.831161" y="234.961864" style="fill: #dd8452; stroke: #dd8452"/>
     <use xlink:href="#m0bca2b76a9" x="488.498434" y="237.402507" style="fill: #dd8452; stroke: #dd8452"/>
     <use xlink:href="#m0bca2b76a9" x="500.165707" y="239.760565" style="fill: #dd8452; stroke: #dd8452"/>
     <use xlink:href="#m0bca2b76a9" x="511.832979" y="242.039327" style="fill: #dd8452; stroke: #dd8452"/>
     <use xlink:href="#m0bca2b76a9" x="523.500252" y="244.241916" style="fill: #dd8452; stroke: #dd8452"/>
     <use xlink:href="#m0bca2b76a9" x="535.167525" y="246.3713" style="fill: #dd8452; stroke: #dd8452"/>
    </g>
   </g>
   <g id="line2d_19">
    <path d="M 68.476616 117.913882 
L 80.143888 125.935821 
L 91.811161 133.531224 
L 103.478434 140.730666 
L 115.145707 147.561898 
L 126.812979 154.050159 
L 138.480252 160.218458 
L 150.147525 166.087814 
L 161.814798 171.677464 
L 173.48207 177.005051 
L 185.149343 182.086781 
L 196.816616 186.937568 
L 208.483888 191.571163 
L 220.151161 196.000259 
L 231.818434 200.236596 
L 243.485707 204.291042 
L 255.152979 208.173681 
L 266.820252 211.893874 
L 278.487525 215.460327 
L 290.154798 218.881146 
L 301.82207 222.163888 
L 313.489343 225.315605 
L 325.156616 228.342887 
L 336.823888 231.2519 
L 348.491161 234.048415 
L 360.158434 236.737846 
L 371.825707 239.32527 
L 383.492979 241.815458 
L 395.160252 244.212896 
L 406.827525 246.521802 
L 418.494798 248.746155 
L 430.16207 250.889702 
L 441.829343 252.955979 
L 453.496616 254.948326 
L 465.163888 256.869901 
L 476.831161 258.723688 
L 488.498434 260.512515 
L 500.165707 262.239057 
L 511.832979 263.905853 
L 523.500252 265.51531 
L 535.167525 267.069714 
" clip-path="url(#p653c8547a4)" style="fill: none; stroke: #55a868; stroke-width: 1.5; stroke-linecap: round"/>
    <defs>
     <path id="m139d503c2c" d="M 0 1.5 
C 0.397805 1.5 0.77937 1.341951 1.06066 1.06066 
C 1.341951 0.77937 1.5 0.397805 1.5 0 
C 1.5 -0.397805 1.341951 -0.77937 1.06066 -1.06066 
C 0.77937 -1.341951 0.397805 -1.5 0 -1.5 
C -0.397805 -1.5 -0.77937 -1.341951 -1.06066 -1.06066 
C -1.341951 -0.77937 -1.5 -0.397805 -1.5 0 
C -1.5 0.397805 -1.341951 0.77937 -1.06066 1.06066 
C -0.77937 1.341951 -0.397805 1.5 0 1.5 
z
" style="stroke: #55a868"/>
    </defs>
    <g clip-path="url(#p653c8547a4)">
     <use xlink:href="#m139d503c2c" x="68.476616" y="117.913882" style="fill: #55a868; stroke: #55a868"/>
     <use xlink:href="#m139d503c2c" x="80.143888" y="125.935821" style="fill: #55a868; stroke: #55a868"/>
     <use xlink:href="#m139d503c2c" x="91.811161" y="133.531224" style="fill: #55a868; stroke: #55a868"/>
     <use xlink:href="#m139d503c2c" x="103.478434" y="140.730666" style="fill: #55a868; stroke: #55a868"/>
     <use xlink:href="#m139d503c2c" x="115.145707" y="147.561898" style="fill: #55a868; stroke: #55a868"/>
     <use xlink:href="#m139d503c2c" x="126.812979" y="154.050159" style="fill: #55a868; stroke: #55a868"/>
     <use xlink:href="#m139d503c2c" x="138.480252" y="160.218458" style="fill: #55a868; stroke: #55a868"/>
     <use xlink:href="#m139d503c2c" x="150.147525" y="166.087814" style="fill: #55a868; stroke: #55a868"/>
     <use xlink:href="#m139d503c2c" x="161.814798" y="171.677464" style="fill: #55a868; stroke: #55a868"/>
     <use xlink:href="#m139d503c2c" x="173.48207" y="177.005051" style="fill: #55a868; stroke: #55a868"/>
     <use xlink:href="#m139d503c2c" x="185.149343" y="182.086781" style="fill: #55a868; stroke: #55a868"/>
     <use xlink:href="#m139d503c2c" x="196.816616" y="186.937568" style="fill: #55a868; stroke: #55a868"/>
     <use xlink:href="#m139d503c2c" x="208.483888" y="191.571163" style="fill: #55a868; stroke: #55a868"/>
     <use xlink:href="#m139d503c2c" x="220.151161" y="196.000259" style="fill: #55a868; stroke: #55a868"/>
     <use xlink:href="#m139d503c2c" x="231.818434" y="200.236596" style="fill: #55a868; stroke: #55a868"/>
     <use xlink:href="#m139d503c2c" x="243.485707" y="204.291042" style="fill: #55a868; stroke: #55a868"/>
     <use xlink:href="#m139d503c2c" x="255.152979" y="208.173681" style="fill: #55a868; stroke: #55a868"/>
     <use xlink:href="#m139d503c2c" x="266.820252" y="211.893874" style="fill: #55a868; stroke: #55a868"/>
     <use xlink:href="#m139d503c2c" x="278.487525" y="215.460327" style="fill: #55a868; stroke: #55a868"/>
     <use xlink:href="#m139d503c2c" x="290.154798" y="218.881146" style="fill: #55a868; stroke: #55a868"/>
     <use xlink:href="#m139d503c2c" x="301.82207" y="222.163888" style="fill: #55a868; stroke: #55a868"/>
     <use xlink:href="#m139d503c2c" x="313.489343" y="225.315605" style="fill: #55a868; stroke: #55a868"/>
     <use xlink:href="#m139d503c2c" x="325.156616" y="228.342887" style="fill: #55a868; stroke: #55a868"/>
     <use xlink:href="#m139d503c2c" x="336.823888" y="231.2519" style="fill: #55a868; stroke: #55a868"/>
     <use xlink:href="#m139d503c2c" x="348.491161" y="234.048415" style="fill: #55a868; stroke: #55a868"/>
     <use xlink:href="#m139d503c2c" x="360.158434" y="236.737846" style="fill: #55a868; stroke: #55a868"/>
     <use xlink:href="#m139d503c2c" x="371.825707" y="239.32527" style="fill: #55a868; stroke: #55a868"/>
     <use xlink:href="#m139d503c2c" x="383.492979" y="241.815458" style="fill: #55a868; stroke: #55a868"/>
     <use xlink:href="#m139d503c2c" x="395.160252" y="244.212896" style="fill: #55a868; stroke: #55a868"/>
     <use xlink:href="#m139d503c2c" x="406.827525" y="246.521802" style="fill: #55a868; stroke: #55a868"/>
     <use xlink:href="#m139d503c2c" x="418.494798" y="248.746155" style="fill: #55a868; stroke: #55a868"/>
     <use xlink:href="#m139d503c2c" x="430.16207" y="250.889702" style="fill: #55a868; stroke: #55a868"/>
     <use xlink:href="#m139d503c2c" x="441.829343" y="252.955979" style="fill: #55a868; stroke: #55a868"/>
     <use xlink:href="#m139d503c2c" x="453.496616" y="254.948326" style="fill: #55a868; stroke: #55a868"/>
     <use xlink:href="#m139d503c2c" x="465.163888" y="256.869901" style="fill: #55a868; stroke: #55a868"/>
     <use xlink:href="#m139d503c2c" x="476.831161" y="258.723688" style="fill: #55a868; stroke: #55a868"/>
     <use xlink:href="#m139d503c2c" x="488.498434" y="260.512515" style="fill: #55a868; stroke: #55a868"/>
     <use xlink:href="#m139d503c2c" x="500.165707" y="262.239057" style="fill: #55a868; stroke: #55a868"/>
     <use xlink:href="#m139d503c2c" x="511.832979" y="263.905853" style="fill: #55a868; stroke: #55a868"/>
     <use xlink:href="#m139d503c2c" x="523.500252" y="265.51531" style="fill: #55a868; stroke: #55a868"/>
     <use xlink:href="#m139d503c2c" x="535.167525" y="267.069714" style="fill: #55a868; stroke: #55a868"/>
    </g>
   </g>
   <g id="line2d_20">
    <path d="M 68.476616 268.686414 
L 80.143888 271.314705 
L 91.811161 273.774937 
L 103.478434 276.079838 
L 115.145707 278.240967 
L 126.812979 280.268845 
L 138.480252 282.173065 
L 150.147525 283.962393 
L 161.814798 285.64485 
L 173.48207 287.22779 
L 185.149343 288.717962 
L 196.816616 290.121575 
L 208.483888 291.444342 
L 220.151161 292.691531 
L 231.818434 293.868005 
L 243.485707 294.978255 
L 255.152979 296.02644 
L 266.820252 297.016407 
L 278.487525 297.951724 
L 290.154798 298.835703 
L 301.82207 299.671416 
L 313.489343 300.461723 
L 325.156616 301.209281 
L 336.823888 301.916565 
L 348.491161 302.585881 
L 360.158434 303.219379 
L 371.825707 303.819066 
L 383.492979 304.386815 
L 395.160252 304.924375 
L 406.827525 305.433384 
L 418.494798 305.915371 
L 430.16207 306.371771 
L 441.829343 306.803926 
L 453.496616 307.213093 
L 465.163888 307.600453 
L 476.831161 307.967112 
L 488.498434 308.31411 
L 500.165707 308.642422 
L 511.832979 308.952967 
L 523.500252 309.246606 
L 535.167525 309.524152 
" clip-path="url(#p653c8547a4)" style="fill: none; stroke: #c44e52; stroke-width: 1.5; stroke-linecap: round"/>
    <defs>
     <path id="m34a94580a8" d="M 0 1.5 
C 0.397805 1.5 0.77937 1.341951 1.06066 1.06066 
C 1.341951 0.77937 1.5 0.397805 1.5 0 
C 1.5 -0.397805 1.341951 -0.77937 1.06066 -1.06066 
C 0.77937 -1.341951 0.397805 -1.5 0 -1.5 
C -0.397805 -1.5 -0.77937 -1.341951 -1.06066 -1.06066 
C -1.341951 -0.77937 -1.5 -0.397805 -1.5 0 
C -1.5 0.397805 -1.341951 0.77937 -1.06066 1.06066 
C -0.77937 1.341951 -0.397805 1.5 0 1.5 
z
" style="stroke: #c44e52"/>
    </defs>
    <g clip-path="url(#p653c8547a4)">
     <use xlink:href="#m34a94580a8" x="68.476616" y="268.686414" style="fill: #c44e52; stroke: #c44e52"/>
     <use xlink:href="#m34a94580a8" x="80.143888" y="271.314705" style="fill: #c44e52; stroke: #c44e52"/>
     <use xlink:href="#m34a94580a8" x="91.811161" y="273.774937" style="fill: #c44e52; stroke: #c44e52"/>
     <use xlink:href="#m34a94580a8" x="103.478434" y="276.079838" style="fill: #c44e52; stroke: #c44e52"/>
     <use xlink:href="#m34a94580a8" x="115.145707" y="278.240967" style="fill: #c44e52; stroke: #c44e52"/>
     <use xlink:href="#m34a94580a8" x="126.812979" y="280.268845" style="fill: #c44e52; stroke: #c44e52"/>
     <use xlink:href="#m34a94580a8" x="138.480252" y="282.173065" style="fill: #c44e52; stroke: #c44e52"/>
     <use xlink:href="#m34a94580a8" x="150.147525" y="283.962393" style="fill: #c44e52; stroke: #c44e52"/>
     <use xlink:href="#m34a94580a8" x="161.814798" y="285.64485" style="fill: #c44e52; stroke: #c44e52"/>
     <use xlink:href="#m34a94580a8" x="173.48207" y="287.22779" style="fill: #c44e52; stroke: #c44e52"/>
     <use xlink:href="#m34a94580a8" x="185.149343" y="288.717962" style="fill: #c44e52; stroke: #c44e52"/>
     <use xlink:href="#m34a94580a8" x="196.816616" y="290.121575" style="fill: #c44e52; stroke: #c44e52"/>
     <use xlink:href="#m34a94580a8" x="208.483888" y="291.444342" style="fill: #c44e52; stroke: #c44e52"/>
     <use xlink:href="#m34a94580a8" x="220.151161" y="292.691531" style="fill: #c44e52; stroke: #c44e52"/>
     <use xlink:href="#m34a94580a8" x="231.818434" y="293.868005" style="fill: #c44e52; stroke: #c44e52"/>
     <use xlink:href="#m34a94580a8" x="243.485707" y="294.978255" style="fill: #c44e52; stroke: #c44e52"/>
     <use xlink:href="#m34a94580a8" x="255.152979" y="296.02644" style="fill: #c44e52; stroke: #c44e52"/>
     <use xlink:href="#m34a94580a8" x="266.820252" y="297.016407" style="fill: #c44e52; stroke: #c44e52"/>
     <use xlink:href="#m34a94580a8" x="278.487525" y="297.951724" style="fill: #c44e52; stroke: #c44e52"/>
     <use xlink:href="#m34a94580a8" x="290.154798" y="298.835703" style="fill: #c44e52; stroke: #c44e52"/>
     <use xlink:href="#m34a94580a8" x="301.82207" y="299.671416" style="fill: #c44e52; stroke: #c44e52"/>
     <use xlink:href="#m34a94580a8" x="313.489343" y="300.461723" style="fill: #c44e52; stroke: #c44e52"/>
     <use xlink:href="#m34a94580a8" x="325.156616" y="301.209281" style="fill: #c44e52; stroke: #c44e52"/>
     <use xlink:href="#m34a94580a8" x="336.823888" y="301.916565" style="fill: #c44e52; stroke: #c44e52"/>
     <use xlink:href="#m34a94580a8" x="348.491161" y="302.585881" style="fill: #c44e52; stroke: #c44e52"/>
     <use xlink:href="#m34a94580a8" x="360.158434" y="303.219379" style="fill: #c44e52; stroke: #c44e52"/>
     <use xlink:href="#m34a94580a8" x="371.825707" y="303.819066" style="fill: #c44e52; stroke: #c44e52"/>
     <use xlink:href="#m34a94580a8" x="383.492979" y="304.386815" style="fill: #c44e52; stroke: #c44e52"/>
     <use xlink:href="#m34a94580a8" x="395.160252" y="304.924375" style="fill: #c44e52; stroke: #c44e52"/>
     <use xlink:href="#m34a94580a8" x="406.827525" y="305.433384" style="fill: #c44e52; stroke: #c44e52"/>
     <use xlink:href="#m34a94580a8" x="418.494798" y="305.915371" style="fill: #c44e52; stroke: #c44e52"/>
     <use xlink:href="#m34a94580a8" x="430.16207" y="306.371771" style="fill: #c44e52; stroke: #c44e52"/>
     <use xlink:href="#m34a94580a8" x="441.829343" y="306.803926" style="fill: #c44e52; stroke: #c44e52"/>
     <use xlink:href="#m34a94580a8" x="453.496616" y="307.213093" style="fill: #c44e52; stroke: #c44e52"/>
     <use xlink:href="#m34a94580a8" x="465.163888" y="307.600453" style="fill: #c44e52; stroke: #c44e52"/>
     <use xlink:href="#m34a94580a8" x="476.831161" y="307.967112" style="fill: #c44e52; stroke: #c44e52"/>
     <use xlink:href="#m34a94580a8" x="488.498434" y="308.31411" style="fill: #c44e52; stroke: #c44e52"/>
     <use xlink:href="#m34a94580a8" x="500.165707" y="308.642422" style="fill: #c44e52; stroke: #c44e52"/>
     <use xlink:href="#m34a94580a8" x="511.832979" y="308.952967" style="fill: #c44e52; stroke: #c44e52"/>
     <use xlink:href="#m34a94580a8" x="523.500252" y="309.246606" style="fill: #c44e52; stroke: #c44e52"/>
     <use xlink:href="#m34a94580a8" x="535.167525" y="309.524152" style="fill: #c44e52; stroke: #c44e52"/>
    </g>
   </g>
   <g id="line2d_21">
    <path d="M 535.167525 323.132152 
L 535.167525 23.756152 
" clip-path="url(#p653c8547a4)" style="fill: none; stroke-dasharray: 5.55,2.4; stroke-dashoffset: 0; stroke: #b91c1c; stroke-width: 1.5"/>
   </g>
   <g id="patch_3">
    <path d="M 45.14207 323.132152 
L 45.14207 23.756152 
" style="fill: none; stroke: #334155; stroke-width: 1.25; stroke-linejoin: miter; stroke-linecap: square"/>
   </g>
   <g id="patch_4">
    <path d="M 558.50207 323.132152 
L 558.50207 23.756152 
" style="fill: none; stroke: #334155; stroke-width: 1.25; stroke-linejoin: miter; stroke-linecap: square"/>
   </g>
   <g id="patch_5">
    <path d="M 45.14207 323.132152 
L 558.50207 323.132152 
" style="fill: none; stroke: #334155; stroke-width: 1.25; stroke-linejoin: miter; stroke-linecap: square"/>
   </g>
   <g id="patch_6">
    <path d="M 45.14207 23.756152 
L 558.50207 23.756152 
" style="fill: none; stroke: #334155; stroke-width: 1.25; stroke-linejoin: miter; stroke-linecap: square"/>
   </g>
   <g id="text_19">
    <!-- Stress exponent selected by leave-one-strategy-out prediction -->
    <g style="fill: #262626" transform="translate(97.504727 17.756152) scale(0.13 -0.13)">
     <defs>
      <path id="MicrosoftYaHei-Bold-39" d="M 338 1219 
Q 922 734 1666 734 
Q 2088 734 2300 879 
Q 2513 1025 2513 1253 
Q 2513 1450 2344 1625 
Q 2175 1800 1453 2100 
Q 319 2581 319 3500 
Q 319 4175 833 4548 
Q 1347 4922 2194 4922 
Q 2903 4922 3384 4738 
L 3384 3769 
Q 2897 4100 2244 4100 
Q 1863 4100 1634 3961 
Q 1406 3822 1406 3588 
Q 1406 3400 1562 3242 
Q 1719 3084 2334 2816 
Q 3056 2506 3326 2162 
Q 3597 1819 3597 1344 
Q 3597 647 3103 281 
Q 2609 -84 1700 -84 
Q 869 -84 338 184 
L 338 1219 
z
" transform="scale(0.015625)"/>
      <path id="MicrosoftYaHei-Bold-5a" d="M 2494 41 
Q 2266 -84 1803 -84 
Q 703 -84 703 1072 
L 703 2703 
L 134 2703 
L 134 3456 
L 703 3456 
L 703 4216 
L 1706 4503 
L 1706 3456 
L 2494 3456 
L 2494 2703 
L 1706 2703 
L 1706 1247 
Q 1706 694 2144 694 
Q 2313 694 2494 794 
L 2494 41 
z
" transform="scale(0.015625)"/>
      <path id="MicrosoftYaHei-Bold-58" d="M 2663 2541 
Q 2478 2647 2216 2647 
Q 1872 2647 1670 2384 
Q 1469 2122 1469 1663 
L 1469 0 
L 459 0 
L 459 3456 
L 1469 3456 
L 1469 2806 
L 1481 2806 
Q 1731 3516 2391 3516 
Q 2569 3516 2663 3475 
L 2663 2541 
z
" transform="scale(0.015625)"/>
      <path id="MicrosoftYaHei-Bold-4b" d="M 3528 1444 
L 1253 1444 
Q 1306 641 2222 641 
Q 2794 641 3231 922 
L 3231 181 
Q 2759 -84 1994 -84 
Q 1169 -84 711 381 
Q 253 847 253 1678 
Q 253 2506 740 3023 
Q 1228 3541 1966 3541 
Q 2700 3541 3114 3095 
Q 3528 2650 3528 1872 
L 3528 1444 
z
M 2588 2075 
Q 2588 2850 1959 2850 
Q 1700 2850 1500 2637 
Q 1300 2425 1250 2075 
L 2588 2075 
z
" transform="scale(0.015625)"/>
      <path id="MicrosoftYaHei-Bold-59" d="M 369 928 
Q 888 613 1384 613 
Q 2009 613 2009 947 
Q 2009 1184 1494 1344 
Q 850 1544 609 1789 
Q 369 2034 369 2453 
Q 369 2963 781 3252 
Q 1194 3541 1863 3541 
Q 2338 3541 2778 3400 
L 2778 2606 
Q 2375 2844 1891 2844 
Q 1650 2844 1503 2758 
Q 1356 2672 1356 2531 
Q 1356 2294 1794 2147 
Q 2263 1991 2498 1862 
Q 2734 1734 2857 1525 
Q 2981 1316 2981 1041 
Q 2981 506 2553 211 
Q 2125 -84 1409 -84 
Q 847 -84 369 94 
L 369 928 
z
" transform="scale(0.015625)"/>
      <path id="MicrosoftYaHei-Bold-3" transform="scale(0.015625)"/>
      <path id="MicrosoftYaHei-Bold-5e" d="M 3706 3456 
L 2563 1772 
L 3697 0 
L 2531 0 
L 2016 953 
Q 1909 1150 1869 1263 
L 1856 1263 
Q 1800 1113 1716 963 
L 1191 0 
L 31 0 
L 1200 1719 
L 100 3456 
L 1269 3456 
L 1781 2463 
Q 1856 2319 1922 2144 
L 1934 2144 
Q 1966 2250 2078 2466 
L 2606 3456 
L 3706 3456 
z
" transform="scale(0.015625)"/>
      <path id="MicrosoftYaHei-Bold-56" d="M 1469 416 
L 1469 -1591 
L 459 -1591 
L 459 3456 
L 1469 3456 
L 1469 2928 
L 1481 2928 
Q 1878 3541 2603 3541 
Q 3263 3541 3634 3080 
Q 4006 2619 4006 1825 
Q 4006 959 3575 437 
Q 3144 -84 2444 -84 
Q 1809 -84 1481 416 
L 1469 416 
z
M 1453 1528 
Q 1453 1159 1653 925 
Q 1853 691 2172 691 
Q 2550 691 2761 984 
Q 2972 1278 2972 1816 
Q 2972 2766 2231 2766 
Q 1888 2766 1670 2503 
Q 1453 2241 1453 1828 
L 1453 1528 
z
" transform="scale(0.015625)"/>
      <path id="MicrosoftYaHei-Bold-55" d="M 253 1713 
Q 253 2566 764 3053 
Q 1275 3541 2138 3541 
Q 2972 3541 3462 3061 
Q 3953 2581 3953 1772 
Q 3953 922 3450 419 
Q 2947 -84 2088 -84 
Q 1244 -84 748 398 
Q 253 881 253 1713 
z
M 1275 1725 
Q 1275 691 2119 691 
Q 2928 691 2928 1753 
Q 2928 2766 2113 2766 
Q 1716 2766 1495 2494 
Q 1275 2222 1275 1725 
z
" transform="scale(0.015625)"/>
      <path id="MicrosoftYaHei-Bold-54" d="M 3744 0 
L 2741 0 
L 2741 1928 
Q 2741 2766 2138 2766 
Q 1850 2766 1659 2542 
Q 1469 2319 1469 1972 
L 1469 0 
L 459 0 
L 459 3456 
L 1469 3456 
L 1469 2906 
L 1481 2906 
Q 1859 3541 2594 3541 
Q 3744 3541 3744 2116 
L 3744 0 
z
" transform="scale(0.015625)"/>
      <path id="MicrosoftYaHei-Bold-52" d="M 444 0 
L 444 5116 
L 1450 5116 
L 1450 0 
L 444 0 
z
" transform="scale(0.015625)"/>
      <path id="MicrosoftYaHei-Bold-49" d="M 3050 128 
Q 2688 -84 2019 -84 
Q 1228 -84 740 397 
Q 253 878 253 1644 
Q 253 2525 778 3033 
Q 1303 3541 2178 3541 
Q 2769 3541 3053 3378 
L 3053 2513 
Q 2706 2766 2297 2766 
Q 1834 2766 1554 2484 
Q 1275 2203 1275 1713 
Q 1275 1238 1540 964 
Q 1806 691 2263 691 
Q 2666 691 3050 947 
L 3050 128 
z
" transform="scale(0.015625)"/>
      <path id="MicrosoftYaHei-Bold-4a" d="M 3794 0 
L 2788 0 
L 2788 488 
L 2772 488 
Q 2406 -84 1691 -84 
Q 1031 -84 642 381 
Q 253 847 253 1650 
Q 253 2500 689 3020 
Q 1125 3541 1828 3541 
Q 2503 3541 2772 3053 
L 2788 3053 
L 2788 5116 
L 3794 5116 
L 3794 0 
z
M 2803 1956 
Q 2803 2306 2592 2536 
Q 2381 2766 2066 2766 
Q 1697 2766 1486 2473 
Q 1275 2181 1275 1681 
Q 1275 1206 1478 948 
Q 1681 691 2038 691 
Q 2372 691 2587 962 
Q 2803 1234 2803 1669 
L 2803 1956 
z
" transform="scale(0.015625)"/>
      <path id="MicrosoftYaHei-Bold-48" d="M 1469 416 
L 1469 0 
L 459 0 
L 459 5116 
L 1469 5116 
L 1469 2928 
L 1481 2928 
Q 1878 3541 2613 3541 
Q 3266 3541 3636 3084 
Q 4006 2628 4006 1825 
Q 4006 966 3581 441 
Q 3156 -84 2453 -84 
Q 1809 -84 1481 416 
L 1469 416 
z
M 1453 1494 
Q 1453 1153 1656 922 
Q 1859 691 2172 691 
Q 2550 691 2761 984 
Q 2972 1278 2972 1816 
Q 2972 2263 2780 2514 
Q 2588 2766 2231 2766 
Q 1894 2766 1673 2512 
Q 1453 2259 1453 1863 
L 1453 1494 
z
" transform="scale(0.015625)"/>
      <path id="MicrosoftYaHei-Bold-5f" d="M 3691 3456 
L 2266 -309 
Q 1769 -1622 778 -1622 
Q 388 -1622 172 -1541 
L 172 -731 
Q 375 -847 619 -847 
Q 1031 -847 1200 -447 
L 1391 6 
L -6 3456 
L 1113 3456 
L 1788 1291 
Q 1850 1094 1878 850 
L 1897 850 
Q 1919 1016 2000 1284 
L 2691 3456 
L 3691 3456 
z
" transform="scale(0.015625)"/>
      <path id="MicrosoftYaHei-Bold-47" d="M 544 3247 
Q 778 3378 1170 3459 
Q 1563 3541 1841 3541 
Q 3291 3541 3291 2088 
L 3291 0 
L 2331 0 
L 2331 503 
L 2319 503 
Q 1966 -84 1284 -84 
Q 794 -84 498 195 
Q 203 475 203 956 
Q 203 1950 1388 2113 
L 2338 2241 
Q 2338 2844 1709 2844 
Q 1091 2844 544 2469 
L 544 3247 
z
M 1684 1566 
Q 1138 1494 1138 1072 
Q 1138 878 1270 759 
Q 1403 641 1628 641 
Q 1938 641 2138 859 
Q 2338 1078 2338 1403 
L 2338 1650 
L 1684 1566 
z
" transform="scale(0.015625)"/>
      <path id="MicrosoftYaHei-Bold-5c" d="M 3688 3456 
L 2391 0 
L 1250 0 
L 16 3456 
L 1097 3456 
L 1731 1281 
Q 1834 925 1847 684 
L 1863 684 
Q 1888 931 1984 1263 
L 2631 3456 
L 3688 3456 
z
" transform="scale(0.015625)"/>
      <path id="MicrosoftYaHei-Bold-13" d="M 2328 1497 
L 481 1497 
L 481 2209 
L 2328 2209 
L 2328 1497 
z
" transform="scale(0.015625)"/>
      <path id="MicrosoftYaHei-Bold-4d" d="M 3800 381 
Q 3800 -581 3251 -1101 
Q 2703 -1622 1672 -1622 
Q 972 -1622 559 -1422 
L 559 -559 
Q 1097 -872 1644 -872 
Q 2184 -872 2489 -583 
Q 2794 -294 2794 219 
L 2794 506 
L 2778 506 
Q 2413 -84 1691 -84 
Q 1038 -84 645 381 
Q 253 847 253 1628 
Q 253 2500 686 3020 
Q 1119 3541 1822 3541 
Q 2459 3541 2778 3044 
L 2794 3044 
L 2794 3456 
L 3800 3456 
L 3800 381 
z
M 2803 1950 
Q 2803 2294 2595 2530 
Q 2388 2766 2072 2766 
Q 1703 2766 1489 2477 
Q 1275 2188 1275 1666 
Q 1275 1213 1481 952 
Q 1688 691 2028 691 
Q 2372 691 2587 956 
Q 2803 1222 2803 1647 
L 2803 1950 
z
" transform="scale(0.015625)"/>
      <path id="MicrosoftYaHei-Bold-5b" d="M 3691 0 
L 2688 0 
L 2688 528 
L 2672 528 
Q 2284 -84 1613 -84 
Q 406 -84 406 1372 
L 406 3456 
L 1416 3456 
L 1416 1466 
Q 1416 691 2022 691 
Q 2325 691 2506 903 
Q 2688 1116 2688 1478 
L 2688 3456 
L 3691 3456 
L 3691 0 
z
" transform="scale(0.015625)"/>
      <path id="MicrosoftYaHei-Bold-4f" d="M 369 4572 
Q 369 4803 533 4948 
Q 697 5094 953 5094 
Q 1216 5094 1378 4945 
Q 1541 4797 1541 4572 
Q 1541 4344 1375 4192 
Q 1209 4041 953 4041 
Q 700 4041 534 4194 
Q 369 4347 369 4572 
z
M 444 0 
L 444 3456 
L 1450 3456 
L 1450 0 
L 444 0 
z
" transform="scale(0.015625)"/>
     </defs>
     <use xlink:href="#MicrosoftYaHei-Bold-39"/>
     <use xlink:href="#MicrosoftYaHei-Bold-5a" transform="translate(57.375 0)"/>
     <use xlink:href="#MicrosoftYaHei-Bold-58" transform="translate(98.78125 0)"/>
     <use xlink:href="#MicrosoftYaHei-Bold-4b" transform="translate(140.6875 0)"/>
     <use xlink:href="#MicrosoftYaHei-Bold-59" transform="translate(198.890625 0)"/>
     <use xlink:href="#MicrosoftYaHei-Bold-59" transform="translate(248.25 0)"/>
     <use xlink:href="#MicrosoftYaHei-Bold-3" transform="translate(297.609375 0)"/>
     <use xlink:href="#MicrosoftYaHei-Bold-4b" transform="translate(327.390625 0)"/>
     <use xlink:href="#MicrosoftYaHei-Bold-5e" transform="translate(385.59375 0)"/>
     <use xlink:href="#MicrosoftYaHei-Bold-56" transform="translate(444.09375 0)"/>
     <use xlink:href="#MicrosoftYaHei-Bold-55" transform="translate(510.703125 0)"/>
     <use xlink:href="#MicrosoftYaHei-Bold-54" transform="translate(576.421875 0)"/>
     <use xlink:href="#MicrosoftYaHei-Bold-4b" transform="translate(641.21875 0)"/>
     <use xlink:href="#MicrosoftYaHei-Bold-54" transform="translate(699.421875 0)"/>
     <use xlink:href="#MicrosoftYaHei-Bold-5a" transform="translate(764.21875 0)"/>
     <use xlink:href="#MicrosoftYaHei-Bold-3" transform="translate(805.625 0)"/>
     <use xlink:href="#MicrosoftYaHei-Bold-59" transform="translate(835.40625 0)"/>
     <use xlink:href="#MicrosoftYaHei-Bold-4b" transform="translate(884.765625 0)"/>
     <use xlink:href="#MicrosoftYaHei-Bold-52" transform="translate(942.96875 0)"/>
     <use xlink:href="#MicrosoftYaHei-Bold-4b" transform="translate(972.5625 0)"/>
     <use xlink:href="#MicrosoftYaHei-Bold-49" transform="translate(1030.765625 0)"/>
     <use xlink:href="#MicrosoftYaHei-Bold-5a" transform="translate(1082.421875 0)"/>
     <use xlink:href="#MicrosoftYaHei-Bold-4b" transform="translate(1123.390625 0)"/>
     <use xlink:href="#MicrosoftYaHei-Bold-4a" transform="translate(1181.59375 0)"/>
     <use xlink:href="#MicrosoftYaHei-Bold-3" transform="translate(1248.046875 0)"/>
     <use xlink:href="#MicrosoftYaHei-Bold-48" transform="translate(1277.828125 0)"/>
     <use xlink:href="#MicrosoftYaHei-Bold-5f" transform="translate(1344.4375 0)"/>
     <use xlink:href="#MicrosoftYaHei-Bold-3" transform="translate(1401.859375 0)"/>
     <use xlink:href="#MicrosoftYaHei-Bold-52" transform="translate(1431.640625 0)"/>
     <use xlink:href="#MicrosoftYaHei-Bold-4b" transform="translate(1461.234375 0)"/>
     <use xlink:href="#MicrosoftYaHei-Bold-47" transform="translate(1519.4375 0)"/>
     <use xlink:href="#MicrosoftYaHei-Bold-5c" transform="translate(1577.203125 0)"/>
     <use xlink:href="#MicrosoftYaHei-Bold-4b" transform="translate(1633.84375 0)"/>
     <use xlink:href="#MicrosoftYaHei-Bold-13" transform="translate(1692.046875 0)"/>
     <use xlink:href="#MicrosoftYaHei-Bold-55" transform="translate(1735.703125 0)"/>
     <use xlink:href="#MicrosoftYaHei-Bold-54" transform="translate(1801.421875 0)"/>
     <use xlink:href="#MicrosoftYaHei-Bold-4b" transform="translate(1866.21875 0)"/>
     <use xlink:href="#MicrosoftYaHei-Bold-13" transform="translate(1924.421875 0)"/>
     <use xlink:href="#MicrosoftYaHei-Bold-59" transform="translate(1968.078125 0)"/>
     <use xlink:href="#MicrosoftYaHei-Bold-5a" transform="translate(2017.4375 0)"/>
     <use xlink:href="#MicrosoftYaHei-Bold-58" transform="translate(2058.84375 0)"/>
     <use xlink:href="#MicrosoftYaHei-Bold-47" transform="translate(2101.234375 0)"/>
     <use xlink:href="#MicrosoftYaHei-Bold-5a" transform="translate(2159 0)"/>
     <use xlink:href="#MicrosoftYaHei-Bold-4b" transform="translate(2199.96875 0)"/>
     <use xlink:href="#MicrosoftYaHei-Bold-4d" transform="translate(2258.171875 0)"/>
     <use xlink:href="#MicrosoftYaHei-Bold-5f" transform="translate(2324.625 0)"/>
     <use xlink:href="#MicrosoftYaHei-Bold-13" transform="translate(2382.046875 0)"/>
     <use xlink:href="#MicrosoftYaHei-Bold-55" transform="translate(2425.703125 0)"/>
     <use xlink:href="#MicrosoftYaHei-Bold-5b" transform="translate(2491.421875 0)"/>
     <use xlink:href="#MicrosoftYaHei-Bold-5a" transform="translate(2556.21875 0)"/>
     <use xlink:href="#MicrosoftYaHei-Bold-3" transform="translate(2597.625 0)"/>
     <use xlink:href="#MicrosoftYaHei-Bold-56" transform="translate(2627.40625 0)"/>
     <use xlink:href="#MicrosoftYaHei-Bold-58" transform="translate(2694.015625 0)"/>
     <use xlink:href="#MicrosoftYaHei-Bold-4b" transform="translate(2735.921875 0)"/>
     <use xlink:href="#MicrosoftYaHei-Bold-4a" transform="translate(2794.125 0)"/>
     <use xlink:href="#MicrosoftYaHei-Bold-4f" transform="translate(2860.578125 0)"/>
     <use xlink:href="#MicrosoftYaHei-Bold-49" transform="translate(2890.171875 0)"/>
     <use xlink:href="#MicrosoftYaHei-Bold-5a" transform="translate(2941.828125 0)"/>
     <use xlink:href="#MicrosoftYaHei-Bold-4f" transform="translate(2983.234375 0)"/>
     <use xlink:href="#MicrosoftYaHei-Bold-55" transform="translate(3012.828125 0)"/>
     <use xlink:href="#MicrosoftYaHei-Bold-54" transform="translate(3078.546875 0)"/>
    </g>
   </g>
   <g id="legend_1">
    <g id="patch_7">
     <path d="M 227.820273 97.151328 
L 375.823867 97.151328 
Q 377.523867 97.151328 377.523867 95.451328 
L 377.523867 29.706152 
Q 377.523867 28.006152 375.823867 28.006152 
L 227.820273 28.006152 
Q 226.120273 28.006152 226.120273 29.706152 
L 226.120273 95.451328 
Q 226.120273 97.151328 227.820273 97.151328 
z
" style="fill: #fbfcfe; opacity: 0.8; stroke: #cccccc; stroke-linejoin: miter"/>
    </g>
    <g id="line2d_22">
     <path d="M 229.520273 35.333252 
L 238.020273 35.333252 
L 246.520273 35.333252 
" style="fill: none; stroke: #4c72b0; stroke-width: 1.5; stroke-linecap: round"/>
     <g>
      <use xlink:href="#m03fa4021a3" x="238.020273" y="35.333252" style="fill: #4c72b0; stroke: #4c72b0"/>
     </g>
    </g>
    <g id="text_20">
     <!-- SOH_200 -->
     <g style="fill: #262626" transform="translate(253.320273 38.308252) scale(0.085 -0.085)">
      <defs>
       <path id="MicrosoftYaHei-2e" d="M 4325 0 
L 3700 0 
L 3700 2181 
L 1250 2181 
L 1250 0 
L 625 0 
L 625 4841 
L 1250 4841 
L 1250 2738 
L 3700 2738 
L 3700 4841 
L 4325 4841 
L 4325 0 
z
" transform="scale(0.015625)"/>
       <path id="MicrosoftYaHei-45" d="M 2869 -1634 
L 0 -1634 
L 0 -1231 
L 2869 -1231 
L 2869 -1634 
z
" transform="scale(0.015625)"/>
      </defs>
      <use xlink:href="#MicrosoftYaHei-39"/>
      <use xlink:href="#MicrosoftYaHei-35" transform="translate(57.71875 0)"/>
      <use xlink:href="#MicrosoftYaHei-2e" transform="translate(139.21875 0)"/>
      <use xlink:href="#MicrosoftYaHei-45" transform="translate(216.5625 0)"/>
      <use xlink:href="#MicrosoftYaHei-18" transform="translate(261.390625 0)"/>
      <use xlink:href="#MicrosoftYaHei-16" transform="translate(320.03125 0)"/>
      <use xlink:href="#MicrosoftYaHei-16" transform="translate(378.671875 0)"/>
     </g>
    </g>
    <g id="line2d_23">
     <path d="M 229.520273 48.655508 
L 238.020273 48.655508 
L 246.520273 48.655508 
" style="fill: none; stroke: #dd8452; stroke-width: 1.5; stroke-linecap: round"/>
     <g>
      <use xlink:href="#m0bca2b76a9" x="238.020273" y="48.655508" style="fill: #dd8452; stroke: #dd8452"/>
     </g>
    </g>
    <g id="text_21">
     <!-- SOH_slope_50_200_per100 -->
     <g style="fill: #262626" transform="translate(253.320273 51.630508) scale(0.085 -0.085)">
      <defs>
       <path id="MicrosoftYaHei-59" d="M 353 747 
Q 816 413 1350 413 
Q 2066 413 2066 881 
Q 2066 1081 1909 1211 
Q 1753 1341 1275 1519 
Q 700 1750 528 1976 
Q 356 2203 356 2525 
Q 356 2984 745 3261 
Q 1134 3538 1703 3538 
Q 2144 3538 2522 3384 
L 2522 2794 
Q 2134 3044 1644 3044 
Q 1350 3044 1165 2916 
Q 981 2788 981 2578 
Q 981 2372 1114 2256 
Q 1247 2141 1703 1959 
Q 2281 1744 2484 1512 
Q 2688 1281 2688 941 
Q 2688 466 2298 192 
Q 1909 -81 1291 -81 
Q 753 -81 353 122 
L 353 747 
z
" transform="scale(0.015625)"/>
      </defs>
      <use xlink:href="#MicrosoftYaHei-39"/>
      <use xlink:href="#MicrosoftYaHei-35" transform="translate(57.71875 0)"/>
      <use xlink:href="#MicrosoftYaHei-2e" transform="translate(139.21875 0)"/>
      <use xlink:href="#MicrosoftYaHei-45" transform="translate(216.5625 0)"/>
      <use xlink:href="#MicrosoftYaHei-59" transform="translate(261.390625 0)"/>
      <use xlink:href="#MicrosoftYaHei-52" transform="translate(307.6875 0)"/>
      <use xlink:href="#MicrosoftYaHei-55" transform="translate(334.296875 0)"/>
      <use xlink:href="#MicrosoftYaHei-56" transform="translate(397.875 0)"/>
      <use xlink:href="#MicrosoftYaHei-4b" transform="translate(461.75 0)"/>
      <use xlink:href="#MicrosoftYaHei-45" transform="translate(518.484375 0)"/>
      <use xlink:href="#MicrosoftYaHei-1b" transform="translate(563.3125 0)"/>
      <use xlink:href="#MicrosoftYaHei-16" transform="translate(621.953125 0)"/>
      <use xlink:href="#MicrosoftYaHei-45" transform="translate(680.59375 0)"/>
      <use xlink:href="#MicrosoftYaHei-18" transform="translate(725.421875 0)"/>
      <use xlink:href="#MicrosoftYaHei-16" transform="translate(784.0625 0)"/>
      <use xlink:href="#MicrosoftYaHei-16" transform="translate(842.703125 0)"/>
      <use xlink:href="#MicrosoftYaHei-45" transform="translate(901.34375 0)"/>
      <use xlink:href="#MicrosoftYaHei-56" transform="translate(946.171875 0)"/>
      <use xlink:href="#MicrosoftYaHei-4b" transform="translate(1010.046875 0)"/>
      <use xlink:href="#MicrosoftYaHei-58" transform="translate(1066.78125 0)"/>
      <use xlink:href="#MicrosoftYaHei-17" transform="translate(1104.96875 0)"/>
      <use xlink:href="#MicrosoftYaHei-16" transform="translate(1163.609375 0)"/>
      <use xlink:href="#MicrosoftYaHei-16" transform="translate(1222.25 0)"/>
     </g>
    </g>
    <g id="line2d_24">
     <path d="M 229.520273 61.977764 
L 238.020273 61.977764 
L 246.520273 61.977764 
" style="fill: none; stroke: #55a868; stroke-width: 1.5; stroke-linecap: round"/>
     <g>
      <use xlink:href="#m139d503c2c" x="238.020273" y="61.977764" style="fill: #55a868; stroke: #55a868"/>
     </g>
    </g>
    <g id="text_22">
     <!-- combined_primary_responses -->
     <g style="fill: #262626" transform="translate(253.320273 64.952764) scale(0.085 -0.085)">
      <defs>
       <path id="MicrosoftYaHei-49" d="M 2934 156 
Q 2538 -81 1978 -81 
Q 1228 -81 772 400 
Q 316 881 316 1647 
Q 316 2497 808 3017 
Q 1300 3538 2125 3538 
Q 2600 3538 2938 3369 
L 2938 2763 
Q 2572 3031 2125 3031 
Q 1600 3031 1270 2667 
Q 941 2303 941 1697 
Q 941 1100 1252 762 
Q 1563 425 2091 425 
Q 2538 425 2934 719 
L 2934 156 
z
" transform="scale(0.015625)"/>
       <path id="MicrosoftYaHei-48" d="M 1159 488 
L 1159 0 
L 547 0 
L 547 5116 
L 1159 5116 
L 1159 2859 
L 1172 2859 
Q 1578 3538 2359 3538 
Q 3009 3538 3392 3080 
Q 3775 2622 3775 1828 
Q 3775 953 3345 436 
Q 2916 -81 2200 -81 
Q 1525 -81 1172 488 
L 1159 488 
z
M 1156 1422 
Q 1156 1003 1428 714 
Q 1700 425 2109 425 
Q 2597 425 2872 800 
Q 3147 1175 3147 1838 
Q 3147 2384 2890 2707 
Q 2634 3031 2191 3031 
Q 1741 3031 1448 2709 
Q 1156 2388 1156 1891 
L 1156 1422 
z
" transform="scale(0.015625)"/>
       <path id="MicrosoftYaHei-54" d="M 3469 0 
L 2859 0 
L 2859 1966 
Q 2859 3031 2081 3031 
Q 1678 3031 1418 2731 
Q 1159 2431 1159 1972 
L 1159 0 
L 547 0 
L 547 3456 
L 1159 3456 
L 1159 2884 
L 1172 2884 
Q 1563 3538 2306 3538 
Q 2875 3538 3172 3173 
Q 3469 2809 3469 2113 
L 3469 0 
z
" transform="scale(0.015625)"/>
       <path id="MicrosoftYaHei-5f" d="M 3359 3456 
L 1791 -522 
Q 1353 -1628 556 -1628 
Q 328 -1628 166 -1578 
L 166 -1041 
Q 344 -1109 509 -1109 
Q 925 -1109 1131 -622 
L 1397 6 
L 41 3456 
L 719 3456 
L 1622 859 
L 1697 575 
L 1713 575 
Q 1731 672 1788 853 
L 2731 3456 
L 3359 3456 
z
" transform="scale(0.015625)"/>
      </defs>
      <use xlink:href="#MicrosoftYaHei-49"/>
      <use xlink:href="#MicrosoftYaHei-55" transform="translate(50.140625 0)"/>
      <use xlink:href="#MicrosoftYaHei-53" transform="translate(113.71875 0)"/>
      <use xlink:href="#MicrosoftYaHei-48" transform="translate(207.421875 0)"/>
      <use xlink:href="#MicrosoftYaHei-4f" transform="translate(271.296875 0)"/>
      <use xlink:href="#MicrosoftYaHei-54" transform="translate(297.90625 0)"/>
      <use xlink:href="#MicrosoftYaHei-4b" transform="translate(359.53125 0)"/>
      <use xlink:href="#MicrosoftYaHei-4a" transform="translate(416.265625 0)"/>
      <use xlink:href="#MicrosoftYaHei-45" transform="translate(480.234375 0)"/>
      <use xlink:href="#MicrosoftYaHei-56" transform="translate(525.0625 0)"/>
      <use xlink:href="#MicrosoftYaHei-58" transform="translate(588.9375 0)"/>
      <use xlink:href="#MicrosoftYaHei-4f" transform="translate(627.125 0)"/>
      <use xlink:href="#MicrosoftYaHei-53" transform="translate(653.734375 0)"/>
      <use xlink:href="#MicrosoftYaHei-47" transform="translate(747.4375 0)"/>
      <use xlink:href="#MicrosoftYaHei-58" transform="translate(802.71875 0)"/>
      <use xlink:href="#MicrosoftYaHei-5f" transform="translate(845.25 0)"/>
      <use xlink:href="#MicrosoftYaHei-45" transform="translate(898.1875 0)"/>
      <use xlink:href="#MicrosoftYaHei-58" transform="translate(943.015625 0)"/>
      <use xlink:href="#MicrosoftYaHei-4b" transform="translate(979.78125 0)"/>
      <use xlink:href="#MicrosoftYaHei-59" transform="translate(1036.515625 0)"/>
      <use xlink:href="#MicrosoftYaHei-56" transform="translate(1082.8125 0)"/>
      <use xlink:href="#MicrosoftYaHei-55" transform="translate(1146.6875 0)"/>
      <use xlink:href="#MicrosoftYaHei-54" transform="translate(1210.265625 0)"/>
      <use xlink:href="#MicrosoftYaHei-59" transform="translate(1271.890625 0)"/>
      <use xlink:href="#MicrosoftYaHei-4b" transform="translate(1318.1875 0)"/>
      <use xlink:href="#MicrosoftYaHei-59" transform="translate(1374.921875 0)"/>
     </g>
    </g>
    <g id="line2d_25">
     <path d="M 229.520273 75.30002 
L 238.020273 75.30002 
L 246.520273 75.30002 
" style="fill: none; stroke: #c44e52; stroke-width: 1.5; stroke-linecap: round"/>
     <g>
      <use xlink:href="#m34a94580a8" x="238.020273" y="75.30002" style="fill: #c44e52; stroke: #c44e52"/>
     </g>
    </g>
    <g id="text_23">
     <!-- eol_point -->
     <g style="fill: #262626" transform="translate(253.320273 78.27502) scale(0.085 -0.085)">
      <defs>
       <path id="MicrosoftYaHei-5a" d="M 2206 34 
Q 2006 -75 1666 -75 
Q 738 -75 738 953 
L 738 2950 
L 144 2950 
L 144 3456 
L 738 3456 
L 738 4288 
L 1347 4481 
L 1347 3456 
L 2206 3456 
L 2206 2950 
L 1347 2950 
L 1347 1063 
Q 1347 722 1462 575 
Q 1578 428 1847 428 
Q 2053 428 2206 544 
L 2206 34 
z
" transform="scale(0.015625)"/>
      </defs>
      <use xlink:href="#MicrosoftYaHei-4b"/>
      <use xlink:href="#MicrosoftYaHei-55" transform="translate(56.734375 0)"/>
      <use xlink:href="#MicrosoftYaHei-52" transform="translate(120.3125 0)"/>
      <use xlink:href="#MicrosoftYaHei-45" transform="translate(146.921875 0)"/>
      <use xlink:href="#MicrosoftYaHei-56" transform="translate(191.75 0)"/>
      <use xlink:href="#MicrosoftYaHei-55" transform="translate(255.625 0)"/>
      <use xlink:href="#MicrosoftYaHei-4f" transform="translate(319.203125 0)"/>
      <use xlink:href="#MicrosoftYaHei-54" transform="translate(345.8125 0)"/>
      <use xlink:href="#MicrosoftYaHei-5a" transform="translate(407.4375 0)"/>
     </g>
    </g>
    <g id="line2d_26">
     <path d="M 229.520273 88.622275 
L 238.020273 88.622275 
L 246.520273 88.622275 
" style="fill: none; stroke-dasharray: 5.55,2.4; stroke-dashoffset: 0; stroke: #b91c1c; stroke-width: 1.5"/>
    </g>
    <g id="text_24">
     <!-- shared p=3.00 -->
     <g style="fill: #262626" transform="translate(253.320273 91.597275) scale(0.085 -0.085)">
      <defs>
       <path id="MicrosoftYaHei-4e" d="M 3466 0 
L 2856 0 
L 2856 1988 
Q 2856 3031 2081 3031 
Q 1684 3031 1421 2726 
Q 1159 2422 1159 1959 
L 1159 0 
L 547 0 
L 547 5116 
L 1159 5116 
L 1159 2888 
L 1172 2888 
Q 1569 3538 2300 3538 
Q 3466 3538 3466 2128 
L 3466 0 
z
" transform="scale(0.015625)"/>
       <path id="MicrosoftYaHei-23" d="M 3972 2497 
L 788 2497 
L 788 2969 
L 3972 2969 
L 3972 2497 
z
M 3972 1053 
L 788 1053 
L 788 1525 
L 3972 1525 
L 3972 1053 
z
" transform="scale(0.015625)"/>
      </defs>
      <use xlink:href="#MicrosoftYaHei-59"/>
      <use xlink:href="#MicrosoftYaHei-4e" transform="translate(46.296875 0)"/>
      <use xlink:href="#MicrosoftYaHei-47" transform="translate(107.875 0)"/>
      <use xlink:href="#MicrosoftYaHei-58" transform="translate(163.15625 0)"/>
      <use xlink:href="#MicrosoftYaHei-4b" transform="translate(199.921875 0)"/>
      <use xlink:href="#MicrosoftYaHei-4a" transform="translate(256.65625 0)"/>
      <use xlink:href="#MicrosoftYaHei-3" transform="translate(320.625 0)"/>
      <use xlink:href="#MicrosoftYaHei-56" transform="translate(350.21875 0)"/>
      <use xlink:href="#MicrosoftYaHei-23" transform="translate(414.09375 0)"/>
      <use xlink:href="#MicrosoftYaHei-19" transform="translate(488.265625 0)"/>
      <use xlink:href="#MicrosoftYaHei-14" transform="translate(546.90625 0)"/>
      <use xlink:href="#MicrosoftYaHei-16" transform="translate(570.984375 0)"/>
      <use xlink:href="#MicrosoftYaHei-16" transform="translate(629.625 0)"/>
     </g>
    </g>
   </g>
  </g>
 </g>
 <defs>
  <clipPath id="p653c8547a4">
   <rect x="45.14207" y="23.756152" width="513.36" height="299.376"/>
  </clipPath>
 </defs>
</svg>
